<svg width="1355" height="138" viewBox="0 0 1355 138" fill="none" xmlns="http://www.w3.org/2000/svg">
<g clip-path="url(#clip0)">
<rect width="1355" height="138" fill="#A4A7E3"/>
<path fill-rule="evenodd" clip-rule="evenodd" d="M592.057 47V230.42C544.37 230.42 504 188.446 504 138.722C504 89.0005 544.37 47 592.057 47Z" fill="#8E91D9"/>
<path fill-rule="evenodd" clip-rule="evenodd" d="M367.831 -86.2222V97.1977C320.144 97.1977 279.773 55.2238 279.773 5.5C279.773 -44.2217 320.144 -86.2222 367.831 -86.2222Z" fill="#8E91D9"/>
<path fill-rule="evenodd" clip-rule="evenodd" d="M816.057 -86.2222V97.1977C768.37 97.1977 728 55.2238 728 5.5C728 -44.2217 768.37 -86.2222 816.057 -86.2222Z" fill="#8E91D9"/>
<path fill-rule="evenodd" clip-rule="evenodd" d="M1040.06 47V230.42C992.37 230.42 952 188.446 952 138.722C952 89.0005 992.37 47 1040.06 47Z" fill="#8E91D9"/>
<path fill-rule="evenodd" clip-rule="evenodd" d="M1264.06 -86.2222V97.1977C1216.37 97.1977 1176 55.2238 1176 5.5C1176 -44.2217 1216.37 -86.2222 1264.06 -86.2222Z" fill="#8E91D9"/>
<path fill-rule="evenodd" clip-rule="evenodd" d="M143.831 47V230.42C96.1435 230.42 55.7734 188.446 55.7734 138.722C55.7734 89.0005 96.1435 47 143.831 47Z" fill="#8E91D9"/>
</g>
<defs>
<clipPath id="clip0">
<rect width="1355" height="138" fill="white"/>
</clipPath>
</defs>
</svg>
