<svg width="184" height="54" viewBox="0 0 184 54" fill="none" xmlns="http://www.w3.org/2000/svg">
<g clip-path="url(#clip0_14715_148711)">
<path fill-rule="evenodd" clip-rule="evenodd" d="M176.767 54H7.32717C3.59027 54 0.546875 50.9566 0.546875 47.25V6.75C0.546875 3.02993 3.59027 0 7.32717 0H176.767C180.501 0 183.548 3.02993 183.548 6.75V47.25C183.548 50.9566 180.501 54 176.767 54Z" fill="black"/>
<path fill-rule="evenodd" clip-rule="evenodd" d="M176.767 1.08067C179.902 1.08067 182.467 3.62918 182.467 6.75V47.25C182.467 50.3708 179.918 52.9193 176.767 52.9193H7.32717C4.19288 52.9193 1.62755 50.3708 1.62755 47.25V6.75C1.62755 3.62918 4.17605 1.08067 7.32717 1.08067H176.767ZM176.767 0H7.32717C3.59027 0 0.546875 3.04339 0.546875 6.75V47.25C0.546875 50.9701 3.59027 54 7.32717 54H176.767C180.501 54 183.548 50.9701 183.548 47.25V6.75C183.548 3.04339 180.501 0 176.767 0Z" fill="#A6A6A6"/>
<path d="M96.9523 17.8629C95.7303 17.8629 94.7001 17.4353 93.8854 16.5937C93.0774 15.7756 92.6263 14.6478 92.6465 13.4964C92.6465 12.2676 93.0639 11.2273 93.8854 10.4025C94.6967 9.56086 95.7269 9.1333 96.949 9.1333C98.1576 9.1333 99.1877 9.56086 100.016 10.4025C100.837 11.2542 101.255 12.2945 101.255 13.4964C101.241 14.7286 100.824 15.7688 100.016 16.5903C99.2046 17.4387 98.1744 17.8629 96.9523 17.8629ZM60.5899 17.8629C59.3947 17.8629 58.3578 17.442 57.5094 16.6105C56.6678 15.7823 56.2402 14.7353 56.2402 13.4998C56.2402 12.2642 56.6678 11.2172 57.5094 10.389C58.341 9.55749 59.3779 9.13667 60.5899 9.13667C61.1824 9.13667 61.7581 9.2545 62.3102 9.49353C62.8522 9.72582 63.2932 10.0423 63.6198 10.4294L63.7006 10.5271L62.7882 11.4226L62.694 11.3115C62.1789 10.6988 61.4887 10.3991 60.5764 10.3991C59.7617 10.3991 59.0513 10.6887 58.4655 11.261C57.8764 11.8367 57.5768 12.5908 57.5768 13.5031C57.5768 14.4155 57.8764 15.1696 58.4655 15.7453C59.0513 16.3176 59.7617 16.6071 60.5764 16.6071C61.445 16.6071 62.1755 16.3176 62.7445 15.7453C63.0811 15.4086 63.2899 14.9373 63.3639 14.3414H60.4384V13.0823H64.6197L64.6365 13.1968C64.6668 13.4089 64.6971 13.6277 64.6971 13.8297C64.6971 14.9912 64.347 15.9304 63.6535 16.6239C62.8657 17.4454 61.8355 17.8629 60.5899 17.8629ZM108.937 17.6844H107.648L103.699 11.3653L103.733 12.5033V17.6811H102.443V9.3151H103.914L103.955 9.37906L107.668 15.3312L107.634 14.1966V9.3151H108.937V17.6844ZM87.2633 17.6844H85.9571V10.5742H83.6914V9.3151H89.5256V10.5742H87.2599V17.6844H87.2633ZM82.6275 17.6844H81.3246V9.3151H82.6275V17.6844ZM75.3052 17.6844H74.0023V10.5742H71.7366V9.3151H77.5709V10.5742H75.3052V17.6844ZM70.9118 17.671H65.9158V9.3151H70.9118V10.5742H67.222V12.8702H70.5516V14.1158H67.222V16.4119H70.9118V17.671ZM94.8415 15.7284C95.4239 16.3109 96.1309 16.6038 96.9523 16.6038C97.7973 16.6038 98.4875 16.3176 99.0632 15.7284C99.6355 15.1561 99.925 14.4054 99.925 13.4998C99.925 12.5941 99.6355 11.84 99.0665 11.2711C98.4841 10.6887 97.7738 10.3958 96.9557 10.3958C96.1107 10.3958 95.4205 10.6819 94.8482 11.2711C94.2759 11.8434 93.9864 12.5941 93.9864 13.4998C93.9864 14.4054 94.2725 15.1595 94.8415 15.7284Z" fill="white"/>
<path fill-rule="evenodd" clip-rule="evenodd" d="M92.5253 29.37C89.3439 29.37 86.765 31.7838 86.765 35.1134C86.765 38.4126 89.3607 40.8567 92.5253 40.8567C95.7067 40.8567 98.2855 38.4261 98.2855 35.1134C98.2855 31.7838 95.7067 29.37 92.5253 29.37ZM92.5253 38.5809C90.7848 38.5809 89.2866 37.14 89.2866 35.0999C89.2866 33.0294 90.7881 31.6188 92.5253 31.6188C94.2658 31.6188 95.7639 33.0294 95.7639 35.0999C95.7673 37.1535 94.2658 38.5809 92.5253 38.5809ZM79.9578 29.37C76.7764 29.37 74.1976 31.7838 74.1976 35.1134C74.1976 38.4126 76.7932 40.8567 79.9578 40.8567C83.1392 40.8567 85.718 38.4261 85.718 35.1134C85.718 31.7838 83.1359 29.37 79.9578 29.37ZM79.9578 38.5809C78.2173 38.5809 76.7192 37.14 76.7192 35.0999C76.7192 33.0294 78.2207 31.6188 79.9578 31.6188C81.6983 31.6188 83.1965 33.0294 83.1965 35.0999C83.1965 37.1535 81.6983 38.5809 79.9578 38.5809ZM65.0035 31.124V33.5546H70.8377C70.6593 34.9181 70.2082 35.9247 69.518 36.6148C68.6629 37.47 67.3432 38.3991 65.0169 38.3991C61.4315 38.3991 58.6271 35.5039 58.6271 31.9185C58.6271 28.3331 61.4315 25.4378 65.0169 25.4378C66.9527 25.4378 68.3633 26.202 69.4103 27.1783L71.134 25.4546C69.6796 24.0609 67.7439 22.9937 65.0304 22.9937C60.1118 22.9937 55.9844 26.9999 55.9844 31.905C55.9844 36.8236 60.1084 40.8163 65.0304 40.8163C67.6866 40.8163 69.6796 39.9478 71.2552 38.3116C72.8611 36.7057 73.3694 34.44 73.3694 32.612C73.3694 32.043 73.3256 31.5313 73.2348 31.097H65.0001C65.0035 31.0937 65.0035 31.124 65.0035 31.124ZM126.171 33.016C125.689 31.7266 124.235 29.3565 121.252 29.3565C118.296 29.3565 115.839 31.6828 115.839 35.0999C115.839 38.3251 118.27 40.8433 121.538 40.8433C124.164 40.8433 125.693 39.2374 126.322 38.2948L124.373 36.9885C123.727 37.948 122.828 38.5776 121.552 38.5776C120.263 38.5776 119.36 37.9918 118.761 36.837L126.44 33.6556C126.44 33.659 126.171 33.016 126.171 33.016ZM118.34 34.9349C118.28 32.7163 120.064 31.5885 121.34 31.5885C122.346 31.5885 123.185 32.0834 123.471 32.8039L118.34 34.9349ZM112.102 40.4999H114.624V23.6266H112.102V40.4999ZM107.961 30.6459H107.87C107.301 29.9692 106.221 29.3565 104.84 29.3565C101.975 29.3565 99.3359 31.8781 99.3359 35.1167C99.3359 38.3419 101.962 40.8332 104.84 40.8332C106.204 40.8332 107.301 40.2171 107.87 39.5269H107.961V40.3518C107.961 42.5434 106.789 43.7251 104.901 43.7251C103.356 43.7251 102.396 42.6141 102.006 41.6849L99.8139 42.6006C100.443 44.1156 102.123 45.9908 104.897 45.9908C107.853 45.9908 110.358 44.2503 110.358 40.005V29.6999H107.975V30.6459C107.978 30.6459 107.961 30.6459 107.961 30.6459ZM105.066 38.5809C103.325 38.5809 101.871 37.1266 101.871 35.1167C101.871 33.09 103.325 31.6222 105.066 31.6222C106.789 31.6222 108.126 33.1069 108.126 35.1167C108.143 37.1266 106.793 38.5809 105.066 38.5809ZM137.978 23.6266H131.948V40.4999H134.47V34.1101H137.981C140.772 34.1101 143.516 32.0868 143.516 28.8751C143.516 25.6634 140.782 23.6266 137.978 23.6266ZM138.052 31.7535H134.466V25.963H138.052C139.94 25.963 141.007 27.5217 141.007 28.8582C141.007 30.1813 139.927 31.7535 138.052 31.7535ZM153.622 29.3397C151.791 29.3397 149.902 30.151 149.121 31.9185L151.356 32.8476C151.838 31.9185 152.72 31.602 153.652 31.602C154.959 31.602 156.278 32.3831 156.309 33.7768V33.9552C155.857 33.6994 154.868 33.3089 153.683 33.3089C151.269 33.3089 148.821 34.6286 148.821 37.103C148.821 39.3687 150.801 40.8231 153.006 40.8231C154.699 40.8231 155.632 40.0589 156.214 39.1735H156.305V40.4797H158.736V34.0158C158.736 31.0061 156.5 29.3397 153.622 29.3397ZM153.306 38.5809C152.481 38.5809 151.326 38.1769 151.326 37.14C151.326 35.8338 152.767 35.3389 153.996 35.3389C155.107 35.3389 155.632 35.5779 156.292 35.9079C156.11 37.4228 154.831 38.5675 153.306 38.5809ZM167.603 29.6999L164.708 37.0188H164.617L161.618 29.6999H158.904L163.405 39.9309L160.84 45.6171H163.466L170.391 29.6999H167.603ZM144.906 40.4999H147.428V23.6266H144.906V40.4999Z" fill="white"/>
<path fill-rule="evenodd" clip-rule="evenodd" d="M14.6317 10.1705C14.2412 10.5913 14.0156 11.2343 14.0156 12.076V41.9275C14.0156 42.7691 14.2412 43.4121 14.6452 43.8161L14.7495 43.907L31.4747 27.1818V26.8081L14.7361 10.0796L14.6317 10.1705Z" fill="url(#paint0_linear_14715_148711)"/>
<path fill-rule="evenodd" clip-rule="evenodd" d="M37.0413 32.7735L31.4629 27.195V26.8045L37.0413 21.2261L37.1625 21.3001L43.761 25.0505C45.6497 26.1144 45.6497 27.8717 43.761 28.949L37.1625 32.6994L37.0413 32.7735Z" fill="url(#paint1_linear_14715_148711)"/>
<path fill-rule="evenodd" clip-rule="evenodd" d="M37.162 32.6996L31.4624 27L14.6328 43.8296C15.2489 44.4894 16.2824 44.5635 17.4372 43.9205L37.162 32.6996Z" fill="url(#paint2_linear_14715_148711)"/>
<path fill-rule="evenodd" clip-rule="evenodd" d="M37.162 21.3003L17.4372 10.0963C16.2824 9.43646 15.2455 9.52736 14.6328 10.1872L31.4624 26.9999L37.162 21.3003Z" fill="url(#paint3_linear_14715_148711)"/>
<path opacity="0.2" fill-rule="evenodd" clip-rule="evenodd" d="M37.041 32.5786L17.4508 43.7085C16.3567 44.3381 15.3804 44.2943 14.7508 43.722L14.6465 43.8264L14.7508 43.9173C15.3804 44.4862 16.3567 44.5333 17.4508 43.9038L37.1757 32.6998L37.041 32.5786Z" fill="black"/>
<path opacity="0.12" fill-rule="evenodd" clip-rule="evenodd" d="M43.76 28.754L37.0234 32.5784L37.1446 32.6996L43.7431 28.9493C44.6891 28.4106 45.1537 27.7036 45.1537 27C45.0965 27.6464 44.6151 28.2591 43.76 28.754Z" fill="black"/>
<path opacity="0.25" fill-rule="evenodd" clip-rule="evenodd" d="M17.4361 10.2916L43.7594 25.246C44.6145 25.7274 45.0959 26.3569 45.17 26.9999C45.17 26.2963 44.7054 25.5893 43.7594 25.0507L17.4361 10.0963C15.5474 9.01566 14.0156 9.9179 14.0156 12.0759V12.2711C14.0156 10.1098 15.5474 9.22439 17.4361 10.2916Z" fill="white"/>
</g>
<defs>
<linearGradient id="paint0_linear_14715_148711" x1="29.9745" y1="11.7539" x2="3.18364" y2="18.8924" gradientUnits="userSpaceOnUse">
<stop stop-color="#00A0FF"/>
<stop offset="0.00657" stop-color="#00A1FF"/>
<stop offset="0.2601" stop-color="#00BEFF"/>
<stop offset="0.5122" stop-color="#00D2FF"/>
<stop offset="0.7604" stop-color="#00DFFF"/>
<stop offset="1" stop-color="#00E3FF"/>
</linearGradient>
<linearGradient id="paint1_linear_14715_148711" x1="46.224" y1="26.9998" x2="13.5582" y2="26.9998" gradientUnits="userSpaceOnUse">
<stop stop-color="#FFE000"/>
<stop offset="0.4087" stop-color="#FFBD00"/>
<stop offset="0.7754" stop-color="#FFA500"/>
<stop offset="1" stop-color="#FF9C00"/>
</linearGradient>
<linearGradient id="paint2_linear_14715_148711" x1="34.0628" y1="30.1014" x2="12.5552" y2="66.3004" gradientUnits="userSpaceOnUse">
<stop stop-color="#FF3A44"/>
<stop offset="1" stop-color="#C31162"/>
</linearGradient>
<linearGradient id="paint3_linear_14715_148711" x1="10.3949" y1="0.241296" x2="19.9903" y2="16.4083" gradientUnits="userSpaceOnUse">
<stop stop-color="#32A071"/>
<stop offset="0.0685" stop-color="#2DA771"/>
<stop offset="0.4762" stop-color="#15CF74"/>
<stop offset="0.8009" stop-color="#06E775"/>
<stop offset="1" stop-color="#00F076"/>
</linearGradient>
<clipPath id="clip0_14715_148711">
<rect width="183.001" height="54" fill="white" transform="translate(0.546875)"/>
</clipPath>
</defs>
</svg>
