<svg width="162" height="54" viewBox="0 0 162 54" fill="none" xmlns="http://www.w3.org/2000/svg">
<g clip-path="url(#clip0_14716_148830)">
<path d="M148.682 0.0001755H12.8718C12.3768 0.0001755 11.8877 0.0001755 11.3939 0.0028755C10.9806 0.0055755 10.5706 0.013419 10.1534 0.0200205C9.24684 0.0306879 8.34247 0.110438 7.44809 0.258579C6.55496 0.409945 5.68981 0.695312 4.8819 1.10503C4.07497 1.51821 3.33767 2.0551 2.69672 2.69622C2.05241 3.33554 1.51533 4.0745 1.10612 4.88469C0.69579 5.69327 0.411265 6.55974 0.262373 7.45417C0.112065 8.34748 0.0311828 9.25108 0.0204525 10.1569C0.0079245 10.5708 0.0066015 10.9861 0 11.4V42.6043C0.0066015 43.0235 0.0079245 43.4295 0.0204525 43.8489C0.0311861 44.7546 0.112068 45.6582 0.262373 46.5514C0.410854 47.4464 0.695396 48.3133 1.10612 49.1222C1.51514 49.9298 2.0523 50.6658 2.69672 51.3015C3.33524 51.9455 4.07302 52.4827 4.8819 52.8928C5.6898 53.3036 6.55486 53.5907 7.44809 53.7444C8.34262 53.8913 9.2469 53.9711 10.1534 53.983C10.5706 53.9922 10.9806 53.9975 11.3939 53.9975C11.8877 54.0002 12.3768 54.0002 12.8718 54.0002H148.682C149.167 54.0002 149.66 54.0002 150.145 53.9975C150.557 53.9975 150.979 53.9922 151.39 53.983C152.295 53.9717 153.197 53.8919 154.09 53.7444C154.986 53.5896 155.854 53.3026 156.666 52.8928C157.474 52.4825 158.211 51.9453 158.849 51.3015C159.492 50.6633 160.03 49.9278 160.444 49.1222C160.852 48.3127 161.134 47.4459 161.28 46.5514C161.431 45.658 161.514 44.7547 161.531 43.8489C161.536 43.4295 161.536 43.0235 161.536 42.6043C161.547 42.1138 161.547 41.6261 161.547 41.1277V12.874C161.547 12.3796 161.547 11.8891 161.536 11.4C161.536 10.9861 161.536 10.5708 161.531 10.1568C161.514 9.25095 161.431 8.34754 161.28 7.45412C161.133 6.56021 160.852 5.6938 160.444 4.88464C159.611 3.26069 158.29 1.93881 156.666 1.10491C155.854 0.696191 154.986 0.4109 154.09 0.258458C153.197 0.109664 152.295 0.029886 151.39 0.0198315C150.979 0.0132435 150.557 0.0053325 150.145 0.0027C149.66 0 149.167 0 148.682 0V0.0001755Z" fill="#A6A6A6"/>
<path d="M11.3997 52.8187C10.9884 52.8187 10.587 52.8134 10.1789 52.8042C9.33351 52.7932 8.49009 52.7196 7.65556 52.584C6.87741 52.45 6.12359 52.2007 5.41896 51.8444C4.7208 51.491 4.08402 51.0276 3.53301 50.4719C2.97403 49.9229 2.50865 49.286 2.15532 48.5867C1.7981 47.8828 1.55088 47.1283 1.42227 46.3495C1.28339 45.5126 1.20825 44.6664 1.1975 43.8182C1.18894 43.5335 1.17773 42.5855 1.17773 42.5855V11.3998C1.17773 11.3998 1.18967 10.4664 1.19757 10.1921C1.20786 9.34525 1.28256 8.50038 1.42103 7.66484C1.54987 6.88389 1.79729 6.12721 2.1547 5.421C2.50674 4.72213 2.96953 4.08481 3.52514 3.53377C4.08013 2.97749 4.71895 2.51172 5.4183 2.15344C6.12131 1.79823 6.8737 1.55069 7.65028 1.41912C8.48755 1.28218 9.3339 1.20815 10.1822 1.19764L11.4004 1.18115H150.138L151.371 1.1983C152.211 1.20829 153.05 1.28166 153.879 1.41779C154.664 1.55102 155.424 1.80028 156.135 2.15739C157.536 2.87943 158.676 4.02177 159.395 5.4243C159.747 6.12563 159.991 6.87614 160.118 7.65034C160.258 8.49274 160.336 9.34425 160.353 10.1981C160.356 10.5804 160.356 10.9911 160.356 11.3998C160.367 11.906 160.367 12.3879 160.367 12.8737V41.1274C160.367 41.6178 160.367 42.0964 160.356 42.5789C160.356 43.0179 160.356 43.4201 160.351 43.834C160.335 44.6726 160.258 45.5089 160.12 46.3362C159.995 47.1207 159.749 47.881 159.391 48.5907C159.036 49.2825 158.573 49.9138 158.02 50.4614C157.469 51.02 156.831 51.4861 156.131 51.8418C155.422 52.2009 154.663 52.4511 153.879 52.584C153.045 52.7203 152.201 52.7939 151.356 52.8042C150.961 52.8134 150.547 52.8187 150.145 52.8187L148.681 52.8214L11.3997 52.8187Z" fill="black"/>
<path d="M33.4373 27.4061C33.4518 26.2793 33.7511 25.1745 34.3074 24.1945C34.8636 23.2144 35.6587 22.391 36.6187 21.8008C36.0088 20.9299 35.2043 20.2131 34.269 19.7075C33.3337 19.2018 32.2933 18.9212 31.2306 18.888C28.9636 18.65 26.7659 20.2445 25.6107 20.2445C24.4331 20.2445 22.6545 18.9116 20.7392 18.951C19.5003 18.991 18.293 19.3513 17.2347 19.9967C16.1765 20.642 15.3035 21.5505 14.7008 22.6336C12.0899 27.154 14.0374 33.7974 16.5384 37.4513C17.7897 39.2406 19.2521 41.2392 21.1657 41.1683C23.0382 41.0906 23.7376 39.9742 25.9979 39.9742C28.2372 39.9742 28.8933 41.1683 30.8457 41.1232C32.855 41.0906 34.121 39.3261 35.3284 37.5199C36.2275 36.245 36.9193 34.836 37.3783 33.345C36.2109 32.8513 35.2147 32.0248 34.5139 30.9687C33.8131 29.9126 33.4387 28.6736 33.4373 27.4061Z" fill="white"/>
<path d="M29.75 16.4848C30.8456 15.1696 31.3853 13.4792 31.2546 11.7725C29.5809 11.9483 28.0348 12.7482 26.9244 14.0129C26.3815 14.6308 25.9657 15.3496 25.7008 16.1282C25.4359 16.9068 25.327 17.7301 25.3804 18.5508C26.2176 18.5594 27.0458 18.378 27.8027 18.0201C28.5596 17.6622 29.2254 17.1373 29.75 16.4848Z" fill="white"/>
<path d="M57.1078 36.6384H50.7177L49.1832 41.1696H46.4766L52.5292 24.4053H55.3412L61.3938 41.1696H58.641L57.1078 36.6384ZM51.3795 34.5474H56.4447L53.9478 27.1936H53.8779L51.3795 34.5474Z" fill="white"/>
<path d="M74.4644 35.0594C74.4644 38.8576 72.4315 41.2979 69.3637 41.2979C68.5866 41.3386 67.8137 41.1596 67.1336 40.7814C66.4535 40.4032 65.8936 39.8411 65.5181 39.1595H65.46V45.2134H62.9512V28.9475H65.3796V30.9804H65.4258C65.8186 30.3021 66.3879 29.7429 67.0732 29.3625C67.7585 28.982 68.5341 28.7944 69.3176 28.8196C72.4196 28.8196 74.4644 31.2718 74.4644 35.0594ZM71.8857 35.0594C71.8857 32.5849 70.6069 30.958 68.6557 30.958C66.7389 30.958 65.4495 32.6192 65.4495 35.0594C65.4495 37.5221 66.7389 39.1714 68.6557 39.1714C70.6069 39.1714 71.8857 37.5564 71.8857 35.0594Z" fill="white"/>
<path d="M87.9176 35.0594C87.9176 38.8576 85.8847 41.2979 82.8168 41.2979C82.0397 41.3386 81.2668 41.1595 80.5867 40.7814C79.9066 40.4032 79.3467 39.8411 78.9712 39.1595H78.9131V45.2134H76.4043V28.9475H78.8327V30.9804H78.8788C79.2716 30.3021 79.841 29.7429 80.5263 29.3624C81.2116 28.982 81.9872 28.7944 82.7707 28.8196C85.8728 28.8196 87.9176 31.2718 87.9176 35.0594ZM85.3389 35.0594C85.3389 32.5849 84.06 30.958 82.1089 30.958C80.192 30.958 78.9026 32.6191 78.9026 35.0594C78.9026 37.5221 80.192 39.1714 82.1089 39.1714C84.0601 39.1714 85.3389 37.5564 85.3389 35.0594H85.3389Z" fill="white"/>
<path d="M96.8084 36.4988C96.9943 38.1613 98.6093 39.2528 100.816 39.2528C102.931 39.2528 104.452 38.1613 104.452 36.6623C104.452 35.361 103.535 34.5819 101.362 34.048L99.1894 33.5246C96.111 32.781 94.6819 31.3414 94.6819 29.0052C94.6819 26.1127 97.2026 24.126 100.782 24.126C104.324 24.126 106.753 26.1127 106.835 29.0052H104.302C104.15 27.3322 102.767 26.3224 100.746 26.3224C98.7253 26.3224 97.3423 27.3441 97.3423 28.8312C97.3423 30.0164 98.2257 30.7138 100.386 31.2477L102.233 31.7012C105.673 32.5147 107.102 33.8963 107.102 36.3484C107.102 39.4848 104.604 41.4492 100.63 41.4492C96.9125 41.4492 94.4024 39.531 94.2402 36.4987L96.8084 36.4988Z" fill="white"/>
<path d="M112.517 26.0547V28.9472H114.841V30.9339H112.517V37.6721C112.517 38.7188 112.982 39.2066 114.004 39.2066C114.28 39.2018 114.555 39.1825 114.829 39.1486V41.1235C114.37 41.2093 113.903 41.2482 113.435 41.2395C110.961 41.2395 109.996 40.3101 109.996 37.9397V30.9339H108.219V28.9472H109.996V26.0547H112.517Z" fill="white"/>
<path d="M116.188 35.0591C116.188 31.2134 118.452 28.7969 121.984 28.7969C125.528 28.7969 127.782 31.2134 127.782 35.0591C127.782 38.9153 125.54 41.3213 121.984 41.3213C118.43 41.3213 116.188 38.9153 116.188 35.0591ZM125.226 35.0591C125.226 32.421 124.017 30.8641 121.984 30.8641C119.951 30.8641 118.744 32.4329 118.744 35.0591C118.744 37.7077 119.951 39.2528 121.984 39.2528C124.017 39.2528 125.226 37.7077 125.226 35.0591H125.226Z" fill="white"/>
<path d="M129.852 28.9474H132.244V31.0278H132.302C132.464 30.378 132.845 29.8038 133.38 29.4017C133.916 28.9995 134.573 28.794 135.242 28.8195C135.532 28.8185 135.82 28.8499 136.102 28.9131V31.2598C135.737 31.1483 135.356 31.0971 134.975 31.1082C134.61 31.0934 134.247 31.1577 133.91 31.2966C133.572 31.4355 133.269 31.6457 133.021 31.9129C132.772 32.18 132.585 32.4977 132.471 32.8442C132.357 33.1907 132.319 33.5578 132.36 33.9202V41.1699H129.852L129.852 28.9474Z" fill="white"/>
<path d="M147.668 37.5798C147.331 39.7986 145.17 41.3213 142.405 41.3213C138.85 41.3213 136.643 38.939 136.643 35.1171C136.643 31.2833 138.861 28.7969 142.3 28.7969C145.681 28.7969 147.808 31.1198 147.808 34.8257V35.6853H139.175V35.8369C139.135 36.2867 139.192 36.7399 139.34 37.1663C139.489 37.5926 139.727 37.9825 140.038 38.3099C140.349 38.6374 140.726 38.8949 141.144 39.0654C141.562 39.2359 142.012 39.3155 142.463 39.2989C143.056 39.3545 143.651 39.2172 144.16 38.9074C144.668 38.5977 145.063 38.132 145.286 37.5798L147.668 37.5798ZM139.187 33.9319H145.298C145.32 33.5274 145.259 33.1227 145.117 32.7431C144.976 32.3634 144.758 32.0171 144.476 31.7258C144.195 31.4345 143.856 31.2046 143.482 31.0504C143.107 30.8962 142.705 30.8211 142.3 30.8298C141.891 30.8273 141.486 30.9058 141.108 31.0607C140.73 31.2156 140.386 31.4439 140.097 31.7323C139.808 32.0207 139.578 32.3636 139.422 32.7411C139.266 33.1186 139.186 33.5233 139.187 33.9319V33.9319Z" fill="white"/>
<path d="M51.0659 11.787C51.5918 11.7492 52.1196 11.8287 52.6112 12.0196C53.1027 12.2106 53.5458 12.5082 53.9084 12.8911C54.271 13.274 54.5441 13.7326 54.708 14.2338C54.8719 14.735 54.9225 15.2664 54.8561 15.7895C54.8561 18.3629 53.4653 19.8422 51.0659 19.8422H48.1562V11.787H51.0659ZM49.4074 18.703H50.9261C51.302 18.7255 51.6781 18.6639 52.0271 18.5226C52.3761 18.3814 52.6893 18.1641 52.9438 17.8866C53.1982 17.6091 53.3876 17.2783 53.4981 16.9184C53.6086 16.5585 53.6375 16.1784 53.5826 15.8059C53.6335 15.4349 53.6017 15.0572 53.4895 14.6999C53.3773 14.3426 53.1874 14.0146 52.9336 13.7393C52.6797 13.4639 52.368 13.2482 52.021 13.1075C51.6739 12.9668 51.3 12.9046 50.9261 12.9253H49.4074V18.703Z" fill="white"/>
<path d="M56.2694 16.8001C56.2312 16.4006 56.2769 15.9975 56.4036 15.6168C56.5303 15.236 56.7351 14.8859 57.0051 14.5889C57.275 14.2919 57.604 14.0546 57.971 13.8922C58.338 13.7299 58.7349 13.646 59.1362 13.646C59.5375 13.646 59.9344 13.7299 60.3014 13.8922C60.6684 14.0546 60.9974 14.2919 61.2673 14.5889C61.5372 14.8859 61.7421 15.236 61.8688 15.6168C61.9955 15.9975 62.0412 16.4006 62.003 16.8001C62.0419 17.2 61.9968 17.6036 61.8704 17.985C61.7441 18.3664 61.5393 18.7172 61.2693 19.0148C60.9993 19.3123 60.6701 19.5501 60.3027 19.7128C59.9353 19.8755 59.538 19.9596 59.1362 19.9596C58.7344 19.9596 58.3371 19.8755 57.9697 19.7128C57.6023 19.5501 57.2731 19.3123 57.0031 19.0148C56.7331 18.7172 56.5283 18.3664 56.402 17.985C56.2756 17.6036 56.2305 17.2 56.2694 16.8001ZM60.769 16.8001C60.769 15.4824 60.177 14.7118 59.1382 14.7118C58.0953 14.7118 57.5087 15.4824 57.5087 16.8001C57.5087 18.1284 58.0954 18.893 59.1382 18.893C60.177 18.893 60.769 18.1231 60.769 16.8001H60.769Z" fill="white"/>
<path d="M69.6244 19.8421H68.3799L67.1235 15.365H67.0286L65.7774 19.8421H64.5448L62.8691 13.7632H64.086L65.175 18.4018H65.2646L66.5144 13.7632H67.6653L68.9151 18.4018H69.0101L70.0938 13.7632H71.2935L69.6244 19.8421Z" fill="white"/>
<path d="M72.7031 13.763H73.858V14.7287H73.9477C74.0997 14.3818 74.3563 14.0911 74.6814 13.8969C75.0066 13.7028 75.3842 13.6149 75.7617 13.6456C76.0575 13.6234 76.3545 13.668 76.6307 13.7761C76.9069 13.8843 77.1553 14.0531 77.3573 14.2703C77.5594 14.4874 77.71 14.7472 77.7981 15.0305C77.8861 15.3138 77.9092 15.6132 77.8658 15.9066V19.8419H76.6661V16.2079C76.6661 15.231 76.2416 14.7452 75.3544 14.7452C75.1535 14.7358 74.9531 14.77 74.7667 14.8454C74.5803 14.9207 74.4124 15.0355 74.2746 15.1818C74.1367 15.3281 74.0321 15.5025 73.9679 15.6931C73.9038 15.8836 73.8816 16.0857 73.9028 16.2857V19.8419H72.7031L72.7031 13.763Z" fill="white"/>
<path d="M79.7773 11.3901H80.9771V19.8421H79.7773V11.3901Z" fill="white"/>
<path d="M82.6444 16.8002C82.6062 16.4007 82.6519 15.9976 82.7786 15.6168C82.9054 15.236 83.1103 14.8859 83.3802 14.5889C83.6502 14.2919 83.9792 14.0546 84.3462 13.8922C84.7132 13.7299 85.1102 13.646 85.5115 13.646C85.9128 13.646 86.3097 13.7299 86.6768 13.8922C87.0438 14.0546 87.3728 14.2919 87.6428 14.5889C87.9127 14.8859 88.1176 15.236 88.2443 15.6168C88.3711 15.9976 88.4168 16.4007 88.3786 16.8002C88.4175 17.2001 88.3723 17.6038 88.2459 17.9852C88.1195 18.3666 87.9147 18.7173 87.6447 19.0149C87.3747 19.3124 87.0454 19.5502 86.678 19.7129C86.3106 19.8756 85.9133 19.9597 85.5115 19.9597C85.1097 19.9597 84.7123 19.8756 84.3449 19.7129C83.9776 19.5502 83.6483 19.3124 83.3783 19.0149C83.1083 18.7173 82.9035 18.3666 82.7771 17.9852C82.6507 17.6038 82.6055 17.2001 82.6444 16.8002ZM87.1439 16.8002C87.1439 15.4825 86.552 14.7119 85.5131 14.7119C84.4703 14.7119 83.8837 15.4825 83.8837 16.8002C83.8837 18.1285 84.4704 18.8931 85.5131 18.8931C86.552 18.8931 87.1439 18.1232 87.1439 16.8002H87.1439Z" fill="white"/>
<path d="M89.6426 18.1231C89.6426 17.0289 90.4573 16.3981 91.9036 16.3084L93.5502 16.2135V15.6888C93.5502 15.0467 93.1257 14.6842 92.3057 14.6842C91.6359 14.6842 91.1719 14.9301 91.0387 15.3599H89.8772C89.9999 14.3157 90.982 13.646 92.361 13.646C93.8851 13.646 94.7446 14.4047 94.7446 15.6888V19.8423H93.5897V18.988H93.4948C93.3022 19.2944 93.0316 19.5442 92.7108 19.7119C92.39 19.8796 92.0305 19.9592 91.6689 19.9424C91.4137 19.969 91.1558 19.9418 90.9117 19.8625C90.6677 19.7833 90.443 19.6538 90.2521 19.4824C90.0612 19.311 89.9083 19.1014 89.8033 18.8673C89.6983 18.6332 89.6436 18.3797 89.6426 18.1231ZM93.5502 17.6037V17.0955L92.0657 17.1904C91.2286 17.2464 90.8489 17.5312 90.8489 18.0671C90.8489 18.6142 91.3235 18.9326 91.9761 18.9326C92.1673 18.952 92.3605 18.9326 92.5441 18.8758C92.7277 18.819 92.898 18.7258 93.0449 18.6018C93.1917 18.4779 93.3122 18.3256 93.399 18.1541C93.4858 17.9826 93.5372 17.7955 93.5502 17.6037Z" fill="white"/>
<path d="M96.3203 16.8C96.3203 14.8792 97.3078 13.6623 98.8437 13.6623C99.2236 13.6448 99.6006 13.7358 99.9307 13.9247C100.261 14.1136 100.53 14.3925 100.708 14.7288H100.797V11.3901H101.997V19.8421H100.848V18.8817H100.753C100.561 19.2158 100.283 19.4913 99.9461 19.6782C99.6096 19.8652 99.2283 19.9565 98.8437 19.9423C97.2972 19.9424 96.3203 18.7255 96.3203 16.8ZM97.5596 16.8C97.5596 18.0894 98.1674 18.8653 99.1838 18.8653C100.195 18.8653 100.82 18.0782 100.82 16.8053C100.82 15.5384 100.188 14.7401 99.1838 14.7401C98.1739 14.7401 97.5596 15.5212 97.5596 16.8H97.5596Z" fill="white"/>
<path d="M106.961 16.8001C106.923 16.4006 106.968 15.9975 107.095 15.6168C107.222 15.236 107.427 14.8859 107.696 14.5889C107.966 14.2919 108.295 14.0546 108.662 13.8922C109.029 13.7299 109.426 13.646 109.828 13.646C110.229 13.646 110.626 13.7299 110.993 13.8922C111.36 14.0546 111.689 14.2919 111.959 14.5889C112.229 14.8859 112.434 15.236 112.56 15.6168C112.687 15.9975 112.733 16.4006 112.694 16.8001C112.733 17.2 112.688 17.6036 112.562 17.985C112.435 18.3664 112.231 18.7172 111.961 19.0148C111.691 19.3123 111.361 19.5501 110.994 19.7128C110.627 19.8755 110.229 19.9596 109.828 19.9596C109.426 19.9596 109.028 19.8755 108.661 19.7128C108.294 19.5501 107.964 19.3123 107.694 19.0148C107.424 18.7172 107.22 18.3664 107.093 17.985C106.967 17.6036 106.922 17.2 106.961 16.8001ZM111.46 16.8001C111.46 15.4824 110.868 14.7118 109.83 14.7118C108.787 14.7118 108.2 15.4824 108.2 16.8001C108.2 18.1284 108.787 18.893 109.83 18.893C110.868 18.893 111.46 18.1231 111.46 16.8001Z" fill="white"/>
<path d="M114.305 13.763H115.46V14.7287H115.549C115.701 14.3818 115.958 14.0911 116.283 13.8969C116.608 13.7028 116.986 13.6149 117.363 13.6456C117.659 13.6234 117.956 13.668 118.232 13.7761C118.508 13.8843 118.757 14.0531 118.959 14.2703C119.161 14.4874 119.312 14.7472 119.4 15.0305C119.488 15.3138 119.511 15.6132 119.467 15.9066V19.8419H118.268V16.2079C118.268 15.231 117.843 14.7452 116.956 14.7452C116.755 14.7358 116.555 14.77 116.368 14.8454C116.182 14.9207 116.014 15.0355 115.876 15.1818C115.738 15.3281 115.634 15.5025 115.569 15.6931C115.505 15.8836 115.483 16.0857 115.504 16.2857V19.8419H114.305V13.763Z" fill="white"/>
<path d="M126.246 12.2495V13.7907H127.563V14.8012H126.246V17.927C126.246 18.5638 126.508 18.8426 127.106 18.8426C127.259 18.8421 127.411 18.8329 127.563 18.8149V19.8142C127.348 19.8528 127.129 19.8733 126.911 19.8756C125.576 19.8756 125.045 19.4062 125.045 18.2342V14.8011H124.08V13.7906H125.045V12.2495H126.246Z" fill="white"/>
<path d="M129.201 11.3901H130.39V14.7401H130.485C130.645 14.39 130.908 14.0976 131.24 13.9027C131.572 13.7079 131.955 13.62 132.339 13.6511C132.633 13.6351 132.927 13.6842 133.2 13.795C133.473 13.9058 133.719 14.0754 133.919 14.2919C134.119 14.5083 134.268 14.7662 134.357 15.0472C134.446 15.3282 134.472 15.6253 134.432 15.9174V19.8421H133.231V16.2133C133.231 15.2424 132.779 14.7506 131.932 14.7506C131.725 14.7337 131.518 14.7621 131.324 14.8337C131.13 14.9053 130.954 15.0185 130.808 15.1653C130.662 15.3121 130.55 15.4889 130.48 15.6835C130.41 15.8781 130.383 16.0857 130.401 16.2918V19.8421H129.201L129.201 11.3901Z" fill="white"/>
<path d="M141.429 18.201C141.266 18.7566 140.913 19.2372 140.431 19.5587C139.95 19.8802 139.371 20.0221 138.795 19.9597C138.394 19.9703 137.996 19.8936 137.629 19.7349C137.261 19.5762 136.932 19.3394 136.665 19.0409C136.397 18.7424 136.198 18.3893 136.081 18.0061C135.964 17.6229 135.932 17.2189 135.987 16.822C135.934 16.4239 135.966 16.019 136.083 15.6347C136.2 15.2504 136.398 14.8957 136.664 14.5945C136.929 14.2934 137.257 14.0528 137.624 13.8892C137.99 13.7256 138.388 13.6427 138.79 13.6461C140.481 13.6461 141.502 14.8017 141.502 16.7106V17.1292H137.209V17.1964C137.19 17.4195 137.218 17.6441 137.291 17.8557C137.364 18.0673 137.481 18.2613 137.633 18.4253C137.786 18.5892 137.971 18.7195 138.176 18.8078C138.382 18.8961 138.604 18.9404 138.828 18.9379C139.115 18.9724 139.406 18.9207 139.663 18.7895C139.921 18.6583 140.133 18.4534 140.274 18.201L141.429 18.201ZM137.209 16.2419H140.279C140.295 16.0379 140.267 15.833 140.198 15.6403C140.129 15.4477 140.021 15.2715 139.88 15.1232C139.739 14.9749 139.569 14.8577 139.38 14.7792C139.191 14.7006 138.988 14.6625 138.783 14.6672C138.576 14.6646 138.37 14.7035 138.177 14.7817C137.985 14.86 137.811 14.9759 137.664 15.1226C137.517 15.2694 137.401 15.4441 137.323 15.6363C137.245 15.8285 137.206 16.0345 137.209 16.2419H137.209Z" fill="white"/>
</g>
<defs>
<clipPath id="clip0_14716_148830">
<rect width="161.547" height="54" fill="white"/>
</clipPath>
</defs>
</svg>
