<svg width="16" height="16" viewBox="0 0 16 16" fill="none" xmlns="http://www.w3.org/2000/svg">
<path d="M3.73125 1.37825C5.12813 1.14106 6.60625 1.60544 7.625 2.62513L7.97188 3.00013L8.34688 2.62575C9.39375 1.60544 10.8438 1.14106 12.2688 1.37825C14.4219 1.737 16 3.60013 16 5.7845V5.96575C16 7.26263 15.4625 8.50325 14.5125 9.38763L8.86563 14.6595C8.63125 14.8783 8.32187 15.0001 8 15.0001C7.67812 15.0001 7.36875 14.8783 7.13438 14.6595L1.48719 9.38763C0.538437 8.50325 0 7.26263 0 5.96575V5.7845C0 3.60013 1.57875 1.737 3.73125 1.37794V1.37825ZM7.97188 5.122V13.4158L13.4906 8.29075C14.1344 7.69075 14.5 6.847 14.5 5.96575V5.7845C14.5 4.3345 13.45 3.09606 12.0219 2.85763C11.075 2.70013 10.1125 3.00888 9.43437 3.6595L7.97188 5.122Z" fill="white"/>
</svg>
