<?xml version="1.0" standalone="no"?>
<!DOCTYPE svg PUBLIC "-//W3C//DTD SVG 1.1//EN" "http://www.w3.org/Graphics/SVG/1.1/DTD/svg11.dtd" >
<svg xmlns="http://www.w3.org/2000/svg">
<metadata>Generated by IcoMoon</metadata>
<defs>
<font id="icomoon" horiz-adv-x="1024">
<font-face units-per-em="1024" ascent="960" descent="-64" />
<missing-glyph horiz-adv-x="1024" />
<glyph unicode="&#x20;" horiz-adv-x="512" d="" />
<glyph unicode="&#xe900;" glyph-name="user" d="M512 912c-50.75 0-98-14-140-38.5-43.75-24.5-78.75-59.5-103.25-101.5-24.5-43.75-36.75-91-36.75-140 0-50.75 12.25-98 36.75-140 24.5-43.75 59.5-78.75 103.25-103.25 42-24.5 89.25-36.75 140-36.75 49 0 96.25 12.25 140 36.75 42.003 24.5 76.998 59.5 101.498 103.25 24.499 42 38.502 89.25 38.502 140 0 49-14.003 96.25-38.502 140-24.499 42-59.494 77-101.498 101.5-43.75 24.5-91 38.5-140 38.5zM832.25 327.5c36.749-10.502 66.502-29.753 91.002-59.5 24.499-31.501 36.749-64.749 36.749-103.251v-64.749c0-24.499-8.749-43.75-24.499-59.501-17.498-17.498-36.749-24.499-59.501-24.499h-728c-24.5 0-43.75 7.002-59.5 24.499-17.5 15.75-24.5 35.002-24.5 59.501v64.749c0 38.502 10.5 71.75 35 103.251 24.5 29.747 54.25 48.998 92.749 59.5l124.25 31.5c54.25-40.248 115.5-61.253 185.5-63 75.25-3.501 143.498 17.498 206.5 63l124.25-31.5z" />
<glyph unicode="&#xe901;" glyph-name="arrow-dd" d="M466.745 301.254l-165.49 165.491c-40.318 40.318-11.763 109.255 45.254 109.255h330.982c57.018 0 85.574-68.937 45.254-109.255l-165.491-165.491c-24.994-24.992-65.516-24.992-90.51 0z" />
<glyph unicode="&#xe902;" glyph-name="alert" d="M512 832c-211.2 0-384-172.8-384-384s172.8-384 384-384 384 172.8 384 384c0 211.2-172.8 384-384 384zM512 192c-38.4 0-64 25.6-64 64s25.6 64 64 64 64-25.6 64-64c0-38.4-25.6-64-64-64zM576 524.8c0-6.4 0-12.8-6.4-19.2l-44.8-147.2c-6.4-12.8-19.2-12.8-25.6 0l-44.8 140.8c-6.4 6.4-6.4 19.2-6.4 25.6v115.2c0 38.4 25.6 64 64 64s64-25.6 64-64v-115.2z" />
<glyph unicode="&#xe903;" glyph-name="verifyed" d="M631.828 777.208l-119.822 118.792-119.822-118.792-168.147 13.98-15.431-168.020-137.794-97.373 96.18-138.63-42.966-163.165 162.788-44.371 71.967-152.608 153.225 70.643 153.222-70.643 71.968 152.608 162.79 44.371-42.97 163.165 96.186 138.63-135.174 95.519-296.536-395.381-243.986 216.875 85.038 95.668 140.014-124.457 281.908 375.88-152.639-12.691z" />
<glyph unicode="&#xe904;" glyph-name="check-double" d="M1000.96 737.28l-419.42-559.226-137.743 137.741 72.408 72.409 54.257-54.257 348.579 464.772 81.92-61.44zM680.96 737.28l-417.387-556.512-233.589 207.631 68.031 76.535 150.411-133.699 350.614 467.484 81.92-61.44z" />
<glyph unicode="&#xe905;" glyph-name="limits" d="M864 896c25.997 0 48-10 68-28 18.003-20 28-42 28-68v-704c0-28-9.997-49.997-28-68-20-20-42.003-28-68-28h-704c-28 0-50 8-68 28-20 18.003-28 40-28 68v704c0 26 8 48 28 68 18 18 40 28 68 28h704zM852 96c2.003 0 4 0 8 4 2.003 2.003 4 4 4 8v680c0 2-1.997 4-4 8-4 2-5.997 4-8 4h-680c-4 0-6-2-8-4-4-4-4-6-4-8v-680c0-4 0-5.997 4-8 2-4 4-4 8-4h680zM768 584c0 6-4 12-8 16s-9.997 8-16 8h-296v48c0 12-6 24-14 34-10 8-22 14-34 14h-32c-14 0-26-6-34-14-10-10-14-22-14-34v-48h-40c-8 0-14-4-18-8s-6-10-6-16v-16c0-8 2-14 6-18s10-6 18-6h40v-48c0-14 4-26 14-34 8-10 20-14 34-14h32c12 0 24 4 34 14 8 8 14 20 14 34v48h296c6.003 0 12 2 16 6s8 10 8 18v16zM768 328c0 6-4 12-8 16s-9.997 8-16 8h-40v48c0 12-6.003 24-14.003 34-9.997 8-21.997 14-33.997 14h-32c-14 0-26-6-34-14-10-10-14-22-14-34v-48h-296c-8 0-14-4-18-8s-6-10-6-16v-16c0-8 2-14.003 6-17.997 4-4.006 10-6.003 18-6.003h296v-48c0-14.003 4-25.997 14-33.997 8-10.003 20-14.003 34-14.003h32c12 0 24 4 33.997 14.003 8 8 14.003 19.994 14.003 33.997v48h40c6.003 0 12 1.997 16 6.003 4 3.994 8 9.997 8 17.997v16z" />
<glyph unicode="&#xe906;" glyph-name="gift" d="M918.003 604c10.496 0 20.998-5.25 29.747-12.25 7.002-8.749 12.25-19.25 12.25-29.75v-224c0-12.25-5.248-22.749-12.25-29.75-8.749-8.749-19.251-12.25-29.747-12.25h-14.003v-140c0-24.499-8.749-43.75-24.499-59.501-17.498-17.498-36.749-24.499-59.501-24.499h-616c-24.5 0-43.75 7.002-59.5 24.499-17.5 15.75-24.5 35.002-24.5 59.501v140h-14c-12.25 0-22.75 3.501-29.75 12.25-8.75 7.002-12.25 17.5-12.25 29.75v224c0 10.5 3.5 21 12.25 29.75 7 7 17.5 12.25 29.75 12.25h105c-24.5 28-35 59.5-35 98 0 42 14 77 45.5 108.5 29.75 29.75 66.5 45.5 108.5 45.5 35 0 66.5-10.5 96.25-29.75 24.5-17.5 54.25-49 85.75-92.75 31.5 43.75 59.5 75.25 85.75 92.75 28 19.25 61.252 29.75 96.253 29.75 41.997 0 76.998-15.75 108.499-45.5 29.747-31.5 45.498-66.5 45.498-108.5 0-38.5-12.25-70-35.002-98h105.005zM547 637.25l-3.5-5.25h150.503c19.245 0 34.995 5.25 48.998 19.25 13.997 14 20.998 29.75 20.998 50.75 0 19.25-7.002 35-20.998 49-14.003 13.999-29.754 21-48.998 21-14.003 0-26.253-3.5-36.755-8.75-13.997-7-27.998-19.25-45.498-38.5s-38.5-49-64.749-87.5zM330 772c-21 0-36.75-7-50.75-21s-19.25-29.75-19.25-49c0-21 5.25-36.75 19.25-50.75s29.75-19.25 50.75-19.25h150.5l-3.5 5.25c-28 38.5-49 68.25-66.5 87.5s-31.5 31.5-43.75 38.5c-10.5 5.25-22.75 8.75-36.75 8.75zM204 156h266v364h-322v-140h280v-84h-224v-140zM876 380v140h-322v-364h266v140h-224v84h280z" />
<glyph unicode="&#xe907;" glyph-name="notifications" d="M913.997 297.997c30.003-32 46.003-65.997 46.003-101.997s-14.003-68-40-93.997c-25.997-26.003-57.997-38.003-94.003-38.003h-185.997c0-36-14-68-38-92s-54-36-90-36c-36 0-68 12-92 36s-36 56-36 92h-186c-38 0-70 12-96 38.003-26 25.997-38 57.997-38 93.997s14 69.997 46 101.997c14 14.003 24 26.003 32 38.003 12 18 20 40 26 68 6 32 10 74 10 126 0 54 12 104 36 152s58 86 102 118c42 32 90 52 144 60-8 10-12 22-12 36 0 16 6 32 18 44s28 20 46 20c16 0 32-8 44-20s20-28 20-44c0-14-4-26-12-36 52-8 100-28 144-60 42.003-32 76-70 100-118s38.003-98 38.003-152c0-52 1.997-94 9.997-126 4-28 14.003-50 25.997-68 6.003-12 16-24 32-38.003zM512 16c12 0 24 4 34 14.003 8 8 14 19.994 14 33.997h-96c0-14.003 4-25.997 14-33.997 8-10.003 20-14.003 34-14.003zM825.997 160c16 0 28.006 6.003 34.003 22.003s4 29.997-8 41.997c-24 24-40 44-52 62.003-16 24-28 53.997-36 89.997-10.003 40-13.997 92-13.997 154 0 42-12.006 82-32 118-22.003 36-52.006 66-88.003 88-36 20-76 32-118 32-44 0-84-12-120-32-36-22-66-52-86-88-22-36-32-76-32-118 0-62-6-112-14-152-8-36-20-67.997-36-91.997-12-18.003-30-38.003-52-62.003-12-12-16-25.997-10-41.997s18-22.003 36-22.003h627.997z" />
<glyph unicode="&#xe908;" glyph-name="off" d="M744.749 831.5c-7.002 1.75-12.25 1.75-17.498 1.75-7.002-1.75-10.502-5.25-12.25-10.5l-20.998-35c-3.501-7-5.254-12.25-3.501-17.5 1.747-5.251 5.248-8.75 10.496-10.5 49.005-33.25 87.501-75.25 117.254-127.75 28-52.5 43.75-108.5 43.75-169.75 0-63-15.75-120.75-47.251-173.252-31.501-54.246-75.251-96.25-127.75-127.75-54.252-31.501-112.001-47.251-175.002-47.251s-122.5 15.75-175 47.251c-54.25 31.501-96.25 73.504-127.75 127.75-31.5 52.502-47.25 110.252-47.25 173.252 0 61.25 14 117.25 43.75 169.75 28 52.5 68.25 94.5 117.251 127.75 3.5 1.75 7 5.25 8.749 10.5s1.75 10.5-1.75 17.5l-21 36.75c-3.5 3.5-7 7-12.25 8.75-7 0-12.25 0-17.5-1.75-63-40.25-112-92.75-147-157.5-36.75-64.75-54.25-136.5-54.25-213.5s19.25-148.749 57.75-215.252c38.5-66.496 92.75-118.995 159.251-157.498s138.25-57.747 217-57.747c78.75 0 150.502 19.245 216.998 57.747 66.502 38.502 119.002 92.749 157.504 159.251 38.496 66.496 59.494 138.248 59.494 216.998 0 75.25-19.245 145.25-54.246 210-36.749 64.75-85.747 117.25-147.002 157.5zM554 429c0-7-3.5-12.25-7-15.75s-8.75-5.25-14.001-5.25h-41.999c-7 0-12.25 1.75-15.75 5.25s-5.25 8.75-5.25 15.75v462.001c0 5.25 1.75 10.5 5.25 14s8.75 7 15.75 7h41.999c5.251 0 10.5-3.5 14.001-7s7-8.75 7-14v-462.001z" />
<glyph unicode="&#xe909;" glyph-name="referal" d="M613.5 565.5c-19.25 17.5-40.25 33.25-63 45.5-8.75 3.5-17.5 3.5-24.5-3.5l-7-7c-15.75-15.75-24.5-33.25-26.25-54.25-1.75-10.5 1.75-17.5 12.25-21 14.001-7 28-17.5 40.25-28 28-29.75 42-64.75 42-105 0-42-14-75.252-42-103.252l-133-131.251c-28-29.747-63-43.75-103.251-43.75-41.999 0-77 14.003-105 42.003s-42 63.002-42 104.998c0 40.25 14 75.252 43.75 103.252l78.75 80.5c5.25 5.25 7 12.25 7 19.25-7 21-8.75 43.75-8.75 66.5 0 8.75-5.25 15.75-14 19.25s-15.75 1.75-22.75-5.25l-110.25-110.25c-31.5-31.5-54.25-68.25-64.749-110.25-10.5-42.003-10.5-84 0-125.997 10.5-42.003 33.25-78.752 64.749-110.253s68.25-54.253 110.25-64.749c42-10.502 84-10.502 126 0 42 10.496 78.75 33.248 110.25 64.749l73.5 73.498c43.75 43.75 68.25 70.003 75.251 77.005 24.5 31.494 41.998 66.496 49 106.747 7.002 38.5 5.248 78.75-5.248 117.251-12.25 38.5-33.254 73.5-61.252 103.25zM888.25 840.25c31.501-31.5 52.499-68.25 63.002-110.25 10.496-42 10.496-84 0-126-10.502-42-31.501-78.75-63.002-110.25l-110.253-110.25c-6.995-7-15.744-8.75-24.499-5.25-8.749 3.5-12.25 8.75-12.25 19.25 0 21-3.501 43.75-8.749 66.5-1.747 7 0 12.25 7.002 19.25l78.752 80.5c28 28 43.75 61.25 43.75 103.251 0 40.25-15.75 75.25-43.75 103.25s-63.002 43.75-103.251 43.75c-42.003 0-75.252-15.75-103.252-43.75l-133-131.25c-28-28-42-63-42-103.251 0-42 14-77 42-105 10.5-12.25 24.5-21 40.25-28 8.749-5.25 12.25-12.25 12.25-21-3.5-21-12.25-40.25-26.25-54.25l-7-7c-8.75-7.002-17.5-8.749-24.5-3.501-24.5 10.502-45.5 26.252-63 45.501-29.75 28-50.75 63-61.25 101.5-12.25 38.5-14 78.75-7 119 7 38.5 24.5 75.25 50.749 106.749 5.251 7 29.75 31.5 75.251 77l73.5 73.5c31.5 31.5 68.25 52.5 110.25 63 42.003 10.5 84 10.5 125.997 0 42.003-10.5 78.752-31.5 110.253-63z" />
<glyph unicode="&#xe90a;" glyph-name="buy" d="M786.752 505.999c3.501 3.5 5.248 7 5.248 14 0 5.25-3.501 10.5-7.002 15.75l-33.248 35c-5.248 3.5-10.502 5.25-15.75 5.25-7.002 0-10.502-3.5-14.003-7l-164.497-169.749v435.751c0 5.251-3.5 10.5-7 14s-8.75 7-14 7h-49c-7 0-12.25-3.5-15.75-7s-5.25-8.749-5.25-14v-435.751l-164.5 169.749c-3.5 3.5-8.75 7-14 7-7 0-12.25-1.75-15.75-5.25l-35-35c-3.5-5.25-5.25-10.5-5.25-15.75 0-7 1.75-10.5 7-14l257.251-258.998c3.5-5.254 8.749-7.002 15.75-7.002 5.25 0 10.5 1.747 15.75 7.002l259.003 258.998zM827.001 163.002c5.248 0 10.496-3.501 13.997-7.002s7.002-8.749 7.002-14.003v-48.998c0-7.002-3.501-12.25-7.002-15.75s-8.749-5.248-13.997-5.248h-630.004c-7 0-12.25 1.747-15.75 5.248s-5.25 8.755-5.25 15.75v49.005c0 5.248 1.75 10.496 5.25 13.997s8.75 7.002 15.75 7.002h630.004z" />
<glyph unicode="&#xe90b;" glyph-name="arrow-bottom" d="M168.083 573.411l90.51 90.51 253.411-253.412 253.414 253.412 90.509-90.51-343.923-343.92-343.921 343.92z" />
<glyph unicode="&#xe90c;" glyph-name="arrow-left" d="M640 789.333l89.6-89.6-251.733-251.733 251.733-251.733-89.6-93.867-345.6 345.6 345.6 341.333z" />
<glyph unicode="&#xe90d;" glyph-name="arrow-right" d="M384 102.4l-89.6 89.6 251.733 251.733-251.733 256 89.6 89.6 345.6-345.6-345.6-341.333z" />
<glyph unicode="&#xe90e;" glyph-name="arrow-top" d="M857.6 320l-89.6-89.6-256 251.733-251.733-251.733-93.867 89.6 345.6 345.6 345.6-345.6z" />
<glyph unicode="&#xe90f;" glyph-name="webcamera" d="M934.955 537.043c0 161.615-94.097 311.229-239.637 381.129-57.5 27.759-119.164 41.828-183.319 41.828-16.028 0-31.921-0.89-47.616-2.627-8.971-1.002-17.854-2.36-26.69-3.94-37.621-6.678-74.084-18.41-108.966-35.239h-0.045c-145.564-69.966-239.639-219.559-239.639-381.151 0-185.877 120.698-343.797 287.722-400.384-64.958-33.169-109.634-100.597-109.634-178.398 0-12.288 9.971-22.261 22.259-22.261h445.218c12.288 0 22.261 9.973 22.261 22.261 0 77.801-44.678 145.229-109.636 178.398 167.025 56.587 287.723 214.507 287.723 400.384zM377.297 890.234c5.566 2.137 11.108 4.252 16.764 6.099 6.633 2.182 13.357 3.985 20.1 5.81 6.479 1.714 12.911 3.539 19.479 4.92 5.877 1.247 11.842 2.048 17.786 3.005 7.279 1.18 14.558 2.515 21.884 3.25 5.764 0.579 11.642 0.646 17.474 0.957 14.135 0.779 28.292 0.779 42.43 0 5.83-0.312 11.708-0.378 17.474-0.957 7.324-0.735 14.581-2.093 21.837-3.25 5.967-0.957 11.955-1.781 17.854-3.027 6.522-1.38 12.956-3.183 19.39-4.897 6.767-1.825 13.513-3.629 20.19-5.832 5.632-1.848 11.174-3.962 16.719-6.099 4.051-1.558 8.036-3.317 12.043-5.009-21.839-61.618-79.761-103.29-146.722-103.29s-124.883 41.673-146.72 103.335c4.006 1.692 7.991 3.45 12.019 4.986zM712.346 537.043c0-110.458-89.888-200.348-200.348-200.348-110.458 0-200.348 89.89-200.348 200.348 0 110.46 89.89 200.348 200.348 200.348 110.46 0 200.348-89.888 200.348-200.348zM710.765-19.477h-397.534c10.842 75.42 75.866 133.564 154.246 133.564h89.043c78.381 0 143.405-58.144 154.244-133.564zM511.998 158.609c-208.672 0-378.435 169.76-378.435 378.434 0 135.902 74.374 262.278 191.488 328.949 17.163-45.145 49.419-81.631 90.334-104.025-87.106-37.553-148.256-124.216-148.256-224.924 0-135.012 109.856-244.868 244.868-244.868s244.87 109.856 244.87 244.868c0 100.708-61.152 187.371-148.258 224.924 40.915 22.394 73.171 58.858 90.336 104.025 117.114-66.649 191.486-193.047 191.486-328.949 0-208.674-169.76-378.434-378.434-378.434zM512.002 648.346c-61.374 0-111.305-49.931-111.305-111.305 0-61.372 49.931-111.305 111.305-111.305s111.305 49.933 111.305 111.305c0 61.374-49.931 111.305-111.305 111.305zM512.002 470.259c-36.819 0-66.782 29.963-66.782 66.782s29.963 66.784 66.782 66.784c36.819 0 66.782-29.965 66.782-66.784s-29.963-66.782-66.782-66.782z" />
<glyph unicode="&#xe910;" glyph-name="file" d="M823.501 721.3c15.75-17.5 24.499-36.75 24.499-59.5v-581c0-24.499-8.749-43.75-24.499-59.501-17.498-17.498-36.749-24.499-59.501-24.499h-504c-24.5 0-43.75 7.002-59.5 24.499-17.5 15.75-24.5 35.002-24.5 59.501v728c0 22.75 7 42 24.5 59.5 15.75 15.75 35 24.5 59.5 24.5h357c22.75 0 42.002-8.75 59.5-24.5l147.002-147zM756.998 668.8l-132.998 133v-133h132.998zM260 80.8h504v504h-182c-12.25 0-22.75 3.5-29.75 12.25-8.75 7-12.25 17.5-12.25 29.75v182h-280v-728z" />
<glyph unicode="&#xe911;" glyph-name="close" d="M768.186 101.318l90.509 90.509-255.431 255.434 255.361 255.363-90.502 90.503-255.361-255.363-255.933 255.932-90.509-90.509 255.932-255.933-256.001-256.003 90.502-90.502 256.001 256.003 255.432-255.433z" />
<glyph unicode="&#xe912;" glyph-name="checkbox" d="M883.206 729.606l-425.736-567.642-243.987 216.874 85.039 95.668 140.014-124.456 342.269 456.356 102.4-76.8z" />
<glyph unicode="&#xe913;" glyph-name="question-circle" d="M512 279.893c16 0 28-6 40-16 9.999-12 15.999-24 15.999-40.003 0-15.996-6-29.996-15.999-39.995-12.001-12.003-24-16.004-40-16.004s-30 4.001-40 16.004c-12 9.999-15.999 23.998-15.999 39.995 0 16.003 3.999 28.003 15.999 40.003 10 10 24 16 40 16zM528 327.893c6 0 12 2 16 6s8 10 8 18c0 16 6 32 18 48 8 8 22 18 46 34 28 18 50 34 62 50 18 22 28 50 28 84 0 48-19.999 86-56 116-38 28-84 44-138 44-44 0-80-8-110-24-26-16-50-38.001-73.999-66-4-6-6.001-12-4-18 0-8 4-12 10-16l26-18c3.999-3.999 9.999-6 18-3.999 6 0 10 3.999 14 8 15.999 20 32 34 50 44 18 8 42 14 70 14 36 0 66-10 86-26 18-16 28-34 28-54 0-18-8-34-19.999-46-8-8-22-19.999-44.001-34-30-20-50-36-62-48-20-24-28.001-54-28.001-88 0-8 2-14 6.001-18s10-6 18-6h32zM512 879.893c-80 0-152-20-218-58-66-40-118-92.001-156-158-40-66-58-138-58-216 0-80 18-152 58-218 38-66.002 90-117.999 156-155.997 66-40.002 138-58.002 218-58.002 78 0 150 18 216 58.002 66.003 37.998 118 89.995 158.002 155.997 37.998 66 57.995 138 57.995 218 0 78-19.997 150-57.995 216-40.002 66-91.999 118-158.002 158-67.999 38-140 58-216 58zM512 943.893c88 0 172-24 247.998-68 76.003-44 136.002-104 180.005-180 43.995-76 67.994-160 67.994-248 0-90-23.998-172.001-67.994-248.001-44.003-76.003-104.002-137.999-180.005-182.001-75.998-43.995-159.999-65.997-247.998-65.997-90 0-172 22.001-248 65.997-76.001 44.003-138 105.999-182.001 182.001-44 76.001-66 158.001-66 248.001 0 88 22 172 66 248s106 136 182.001 180c76 44 158 68 248 68z" />
<glyph unicode="&#xe914;" glyph-name="arrow-long-left" d="M448 684.8l-76.8 83.2-307.2-320 307.2-320 76.8 83.2-115.2 121.6-64 51.2h755.2v128h-755.2l70.4 51.2 108.8 121.6z" />
<glyph unicode="&#xe915;" glyph-name="arrow-long-right" d="M576 212.211l80-84.211 304 320-304 320-80-84.214 112-117.892 68.435-53.893h-756.435v-128h756.435l-68.435-53.893-112-117.896z" />
<glyph unicode="&#xe916;" glyph-name="arrow-long-up" d="M780.8 544l83.2 76.8-320 307.2-320-307.2 83.2-76.8 121.6 115.2 51.2 64v-755.2h128v755.2l51.2-70.4 121.6-108.8z" />
<glyph unicode="&#xe917;" glyph-name="arrow-long-down" d="M307.2 352l-83.2-76.8 320-307.2 320 307.2-83.2 76.8-121.6-115.2-51.2-64v755.2h-128v-755.2l-51.2 70.4-121.6 108.8z" />
<glyph unicode="&#xe918;" glyph-name="wallet" d="M922.4 704h-762.4c-17.68 0-32 14.32-32 32s14.32 32 32 32h768c17.677 0 32 14.32 32 32 0 53.020-42.982 96-96 96h-736c-70.7 0-128-57.3-128-128v-640c0-70.701 57.3-128 128-128h794.4c56.038 0 101.6 43.059 101.6 96v512c0 52.94-45.562 96-101.6 96zM832 288c-35.341 0-64 28.659-64 64s28.659 64 64 64c35.341 0 64-28.66 64-64s-28.659-64-64-64z" />
<glyph unicode="&#xe919;" glyph-name="paybis-logo" d="M704 0v896c-242.614 0-448-205.171-448-448.060 0-242.897 205.386-447.94 448-447.94z" />
<glyph unicode="&#xe91a;" glyph-name="plus" d="M448 896h128v-896h-128v896zM960 512v-128h-896v128h896z" />
<glyph unicode="&#xe91b;" glyph-name="shield" horiz-adv-x="964" d="M879.062 801.882h-1.885c16.944-7.529 30.118-16.941 41.412-32 9.409-15.059 15.059-32 15.059-50.824 0-129.882-24.468-248.471-71.529-355.765-41.412-90.35-97.882-169.415-165.647-237.179-58.35-56.465-118.588-97.882-180.706-122.35-22.588-11.294-45.176-11.294-67.765 0-71.529 28.238-137.412 75.294-197.647 139.294-67.765 67.765-118.588 148.703-156.235 242.824-43.294 103.529-64 214.588-64 333.176 0 18.824 3.765 35.765 15.059 50.824 9.412 15.059 22.588 24.471 41.412 32l361.412 150.588c22.588 9.412 45.176 9.412 69.647 0l361.415-150.588zM493.176 58.35c64 24.474 124.235 67.765 180.706 129.885 60.235 64 107.297 141.173 141.173 227.765 37.647 96 58.356 197.647 58.356 303.059 0 13.176-7.529 22.588-18.824 28.235l-361.412 150.588c-7.529 1.882-15.059 1.882-22.588 0l-361.412-150.588c-13.176-5.647-18.824-15.059-18.824-28.235 0-105.412 18.824-207.059 58.353-303.059 33.882-86.591 80.941-163.765 141.176-227.765 56.471-62.121 116.706-105.412 180.706-129.885 7.529-3.759 15.059-3.759 22.588 0z" />
<glyph unicode="&#xe91c;" glyph-name="dots" d="M512 672c-53.019 0-96 42.981-96 96s42.981 96 96 96c53.019 0 96-42.981 96-96s-42.981-96-96-96zM512 352c-53.019 0-96 42.981-96 96s42.981 96 96 96c53.019 0 96-42.981 96-96s-42.981-96-96-96zM512 32c-53.019 0-96 42.981-96 96s42.981 96 96 96c53.019 0 96-42.981 96-96s-42.981-96-96-96z" />
<glyph unicode="&#xe91d;" glyph-name="trash" d="M732.499 772h157.498c10.502 0 21.005-5.25 29.754-12.25 7.002-8.75 12.25-19.25 12.25-29.75v-21c0-7-3.501-12.25-7.002-15.75s-8.749-5.25-13.997-5.25h-28l-56-595.002c-3.501-22.746-12.25-41.997-28-56-15.75-13.997-35.002-20.998-56-20.998h-462.002c-22.749 0-42 7.002-57.75 20.998-15.75 14.003-24.5 33.254-26.25 56l-56 595.002h-28c-7 0-12.25 1.75-15.75 5.25s-5.25 8.75-5.25 15.75v21c0 10.5 3.5 21 12.25 29.75 7 7 17.5 12.25 29.75 12.25h157.5l59.5 99.75c7 12.25 17.5 22.75 31.5 29.75 12.25 7 26.25 10.5 42 10.5h175c14 0 28-3.5 41.997-10.5 12.25-7 22.752-17.5 31.501-29.75l59.501-99.75zM424.5 828l-35-56h245l-35 56h-175zM743.002 100l54.246 588h-570.498l54.25-588h462.002z" />
<glyph unicode="&#xe91e;" glyph-name="edit" d="M924.992 782.5c22.752-24.5 35.002-52.5 35.002-84 0-33.25-12.25-61.25-35.002-84l-575.747-575.748-196-22.752c-26.25-3.501-49 5.248-66.5 22.752-17.5 17.498-26.25 40.25-22.75 66.496l22.75 196 575.751 575.752c22.752 22.75 50.752 35 84 35 31.501 0 59.501-12.25 84-35l94.496-94.5zM310.745 119.251l411.252 411.249-143.502 143.5-411.25-411.248-19.25-162.752 162.75 19.251zM865.498 674c6.995 7 10.496 14 10.496 24.5 0 8.75-3.501 17.5-10.496 24.5l-94.502 94.5c-7.002 7-15.75 10.5-24.499 10.5-10.502 0-17.504-3.5-24.499-10.5l-84.002-84 143.503-143.5 84 84z" />
<glyph unicode="&#xe91f;" glyph-name="approximately" d="M118.36 163.84h120.96c9.6 59.52 46.080 88.32 88.32 88.32 99.84 0 220.8-84.48 372.482-84.48 99.84 0 193.92 71.040 205.44 228.48h-120.96c-5.76-61.44-46.080-88.32-86.4-88.32-101.762 0-222.722 84.48-368.642 84.48-105.6 0-197.76-74.88-211.2-228.48zM118.36 503.68h120.96c9.6 59.52 46.080 88.32 88.32 88.32 99.84 0 220.8-84.48 372.482-84.48 99.84 0 193.92 71.040 205.44 228.48h-120.96c-5.76-61.44-46.080-88.32-86.4-88.32-101.762 0-222.722 84.48-368.642 84.48-105.6 0-197.76-74.88-211.2-228.48z" />
<glyph unicode="&#xe920;" glyph-name="info-circle" d="M512 944c88 0 172-24 248-68s136-104 180-180c44-76 68-160 68-248 0-90-24-172-68-248s-104-137.997-180-182.003c-76-43.994-160-65.997-248-65.997-90 0-172 22.003-248 65.997-76 44.006-138 106.003-182 182.003s-66 158-66 248c0 88 22 172 66 248s106 136 182 180c76 44 158 68 248 68zM512 724c-24 0-44-10-60-26s-24-36-24-58c0-24 8-44 24-60s36-24 60-24c22 0 42 8 58 24s26 36 26 60c0 22-10 42-26 58s-36 26-58 26zM624 216v48c0 6.003-4 12-8 16s-10 8-16 8h-24v200c0 6-4 12-8 16s-10 8-16 8h-128c-8 0-14-4-18-8s-6-10-6-16v-48c0-8 2-14 6-18s10-6 18-6h24v-128h-24c-8 0-14-4-18-8s-6-9.997-6-16v-48c0-8 2-14.003 6-17.997 4-4.006 10-6.003 18-6.003h176c6 0 12 1.997 16 6.003 4 3.994 8 9.997 8 17.997z" />
<glyph unicode="&#xe921;" glyph-name="twitter" d="M918.003 656c40 30 75.994 66 105.997 110-40-18-80-30-120-34 44 28 76 66 92 116-42.003-24-85.997-42-133.997-50-20.006 20-44.006 36-70.003 48s-54.003 18-84 18c-37.997 0-72-10-104-28-32-20-58-46-76-78-20-32-28-68-28-104 0-16 0-32 4-48-86 4-166 24-242 64-76 38-138 90-190 156-20-34-30-70-30-106s8-70 26-100c16-32 40-56 68-76-34 0-66 10-94 28v-4c0-50 16-94 48-132 32-40 72-64 120-74-20-4-38-6-56-6-12 0-26 0-38 2 12-42 36-76.003 72-103.997 36-28.006 76-40 124-40-78-60.006-166-90.003-262-90.003-20 0-36 0-50 2.003 96-64 204-94.003 322-94.003 122 0 230 30.003 326 94.003 86.003 56 153.997 129.997 201.997 225.997 46.003 88 70.003 182 70.003 278 0 12-1.997 20-1.997 26z" />
<glyph unicode="&#xe922;" glyph-name="fb-messenger" horiz-adv-x="896" d="M448 896c80 0 154-20 222.003-56 67.994-38 121.997-88 161.997-152s60-132 60-206c0-92-29.997-171.997-85.997-243.997-54.003-70.003-124.006-120-212.003-148.006-90-29.997-182-32-274-5.997l-150-84v158.003c-80 59.994-130 131.994-152 219.997-22 80-18 160 12 240s82 146 154 198c76 52 164 80 264 80zM494 340l243.997 256-221.997-122-114 120-242-258 220 124 114-120z" />
<glyph unicode="&#xe923;" glyph-name="facebook" horiz-adv-x="896" d="M896 846c0 14-6.003 26-16 36-9.997 8-22.003 14-33.997 14h-796.003c-16 0-28-6-36-14-10-10-14-22-14-36v-796.003c0-13.997 4-25.997 14-35.994 8-10.003 20-14.003 36-14.003h428v348h-116v134h116v100c0 56 16 100 48 132 32 30 74 46 126 46 40 0 76-2 104-4v-122h-72c-26.003 0-44-6-54-18-8-10-12-26-12-48v-86h134l-17.997-134h-116.003v-348h228.003c13.997 0 25.997 4 35.994 14.003 8 9.997 14.003 21.997 14.003 35.994v796.003z" />
<glyph unicode="&#xe924;" glyph-name="envelope" d="M1004 578c-48-38-152-114-308-226l-20-16c-32-24-56-41.997-76-52-32-20-62-28-88-28-28 0-56 8-88 25.997-20 10.003-44 28.006-76 52.003l-20 18c-162 116-264 192-308 226-4 2-10 2-14 0s-6-6-6-10v-408c0-28 8-49.997 28-68 18-20 40-28 68-28h832c25.997 0 48 8 68 28 18.003 18.003 28 40 28 68v408c0 4-4 8-8 12-4 2-8 2-12-2zM512 320c-18 0-40 8-64 24-16 8-36 22-62 44l-20 14c-164 120-276 202-334 248l-14 10c-12 8-18 22-18 38v38c0 26 8 48 28 68 18 18 40 28 68 28h832c25.997 0 48-10 68-28 18.003-20 28-42 28-68v-38c0-16-6.003-30-17.997-38l-10.003-8c-58.003-46-170.003-130-338.003-250l-19.997-14c-28-22-48-36-62-44-26-16-48-24-64-24z" />
<glyph unicode="&#xe925;" glyph-name="copy" d="M932 828c18.003-20 28-42 28-68v-536c0-28-9.997-49.997-28-68-20-20-42.003-28-68-28h-160v-96c0-28-9.997-49.997-28-68-20-20-42-28-68-28h-448c-28 0-50 8-68 28-20 18.003-28 40-28 68v640c0 26 8 48 28 68 18 18 40 28 68 28h160v96c0 26 8 48 28 68 18 18 40 28 68 28h344c25.997 0 48-10 68-28l104-104zM596 32c2 0 4 0 8 4 2 2.003 4 4 4 8v84h-192c-28 0-50 8-68 28-20 18.003-28 40-28 68v448h-148c-4 0-6-2-8-4-4-4-4-6-4-8v-616c0-4 0-5.997 4-8 2-4 4-4 8-4h424zM852 224c2.003 0 4 0 8 4 2.003 2.003 4 4 4 8v404h-176c-14.003 0-25.997 4-33.997 14-10.003 8-14.003 20-14.003 34v176h-212c-4 0-6-2-8-4-4-4-4-6-4-8v-616c0-4 0-5.997 4-8 2-4 4-4 8-4h424zM864 736v20c0 2-1.997 4-4 8l-96 96c-4 2-5.997 4-8 4h-20v-128h128z" />
<glyph unicode="&#xe926;" glyph-name="arrow-triangle-top" d="M454.4 608c25.6 44.8 83.2 44.8 108.8 0l108.8-192c32-44.8 0-96-51.2-96h-217.6c-51.2 0-83.2 51.2-57.6 96l108.8 192z" />
<glyph unicode="&#xe927;" glyph-name="arrow-triangle-right" d="M672 503.425c42.669-24.634 42.669-86.218 0-110.851l-192-110.852c-42.667-24.634-96 6.157-96 55.427v221.702c0 49.267 53.333 80.060 96 55.426l192-110.852z" />
<glyph unicode="&#xe928;" glyph-name="arrow-triangle-left" d="M352 390.4c-44.8 25.6-44.8 83.2 0 108.8l192 108.8c44.8 32 96 0 96-51.2v-224c0-51.2-51.2-83.2-96-57.6l-192 115.2z" />
<glyph unicode="&#xe929;" glyph-name="phone" d="M708 912c22.752 0 42.003-8.75 59.501-24.5 15.75-17.5 24.499-36.75 24.499-59.5v-728c0-24.499-8.749-43.75-24.499-59.501-17.498-17.498-36.749-24.499-59.501-24.499h-392c-24.5 0-43.75 7.002-59.5 24.499-17.5 15.75-24.5 35.002-24.5 59.501v728c0 22.75 7 42 24.5 59.5 15.75 15.75 35 24.5 59.5 24.5h392zM512 72c14 0 28 5.248 38.5 15.75s17.5 24.499 17.5 40.25c0 14.003-7 28-17.5 38.502-10.5 10.496-24.5 17.498-38.5 17.498-15.75 0-29.75-7.002-40.25-17.498-10.5-10.502-15.75-24.499-15.75-38.502 0-15.75 5.25-29.747 15.75-40.25s24.5-15.75 40.25-15.75z" />
<glyph unicode="&#xe92a;" glyph-name="desktop" d="M932 912c22.752 0 42.003-8.75 59.501-24.5 15.75-17.5 24.499-36.75 24.499-59.5v-504c0-24.499-8.749-43.75-24.499-59.501-17.498-17.498-36.749-24.499-59.501-24.499h-840c-24.5 0-43.75 7.002-59.5 24.499-17.5 15.75-24.5 35.002-24.5 59.501v504c0 22.75 7 42 24.5 59.5 15.75 15.75 35 24.5 59.5 24.5h840zM921.498 324c1.754 0 3.501 0 7.002 3.5 1.754 1.75 3.501 3.5 3.501 7v483c0 1.75-1.747 3.5-3.501 7-3.501 1.75-5.248 3.5-7.002 3.5h-818.998c-3.5 0-5.25-1.75-7-3.5-3.5-3.5-3.5-5.25-3.5-7v-483c0-3.5 0-5.25 3.5-7 1.75-3.5 3.5-3.5 7-3.5h818.998zM848 57.997c0 10.502-5.248 21.005-12.25 29.754-8.749 7.002-19.251 12.25-29.747 12.25h-173.253l-31.5 98.003c-3.5 8.749-10.5 13.997-21 13.997h-136.5c-10.5 0-17.5-5.248-21-13.997l-31.5-98.003h-173.25c-12.25 0-22.75-5.248-29.75-12.25-8.75-8.749-12.25-19.251-12.25-29.754 0-12.25 3.5-22.746 12.25-29.747 7-8.749 17.5-12.25 29.75-12.25h588.003c10.496 0 20.998 3.501 29.747 12.25 7.002 7.002 12.25 17.498 12.25 29.747z" />
<glyph unicode="&#xe92b;" glyph-name="clock" d="M512 898c77 0 150.502-21 216.998-59.5 66.502-38.5 119.002-91 157.504-157.5 38.496-66.5 59.494-140 59.494-217 0-78.75-20.998-150.502-59.494-216.998-38.502-66.502-91.002-120.749-157.504-159.251-66.496-38.502-139.999-57.754-216.998-57.754-78.75 0-150.5 19.251-217 57.754s-120.749 92.749-159.25 159.251c-38.5 66.496-57.75 138.248-57.75 216.998 0 77 19.25 150.5 57.75 217s92.75 119 159.251 157.5c66.5 38.5 138.25 59.5 217 59.5zM512 113.997c63 0 120.75 15.75 175.002 47.251 52.499 31.501 96.25 73.504 127.75 127.75 31.501 52.502 47.245 112.001 47.245 175.002s-15.744 120.75-47.245 175c-31.501 52.5-75.251 96.25-127.75 127.75-54.252 31.5-112.001 47.25-175.002 47.25s-122.5-15.75-175-47.25c-54.25-31.5-96.25-75.25-127.75-127.75-31.5-54.25-47.25-112-47.25-175s15.75-122.5 47.25-175.002c31.5-54.246 73.5-96.25 127.75-127.75 52.5-31.501 112-47.251 175-47.251zM620.5 296c3.5-3.501 8.75-5.248 15.75-3.501 5.247 0 10.502 3.501 14.003 8.749l31.494 45.502c3.501 3.5 3.501 8.75 3.501 15.75 0 5.25-3.501 10.5-6.995 14l-117.253 84v248.5c0 5.251-3.5 10.5-7 14s-8.75 7-14 7h-56c-7 0-12.25-3.5-15.75-7s-5.251-8.749-5.251-14v-287c0-7 1.75-14 8.75-17.5l148.75-108.5z" />
<glyph unicode="&#xe92c;" glyph-name="lock" d="M820 576c22.752 0 42.003-8.75 59.501-24.5 15.75-17.5 24.499-36.75 24.499-59.5v-392c0-24.499-8.749-43.75-24.499-59.501-17.498-17.498-36.749-24.499-59.501-24.499h-616c-24.5 0-43.75 7.002-59.5 24.499-17.5 15.75-24.5 35.002-24.5 59.501v392c0 22.75 7 42 24.5 59.5 15.75 15.75 35 24.5 59.5 24.5h56v84c0 45.5 10.5 87.5 33.25 126s54.25 68.25 92.75 91c38.5 22.75 80.5 35 126 35s87.5-12.25 126-35c38.499-22.749 68.253-54.25 90.998-92.749 22.752-38.5 35.002-80.5 35.002-126v-82.25h56zM344 660v-84h336v84c0 45.5-17.498 85.75-49 119-33.251 31.5-73.5 49-119 49-47.25 0-87.5-17.5-119-49-33.25-33.251-49-73.5-49-119zM820 100v392h-616v-392h616z" />
<glyph unicode="&#xe92d;" glyph-name="search" d="M954.752 91.251c3.501-3.501 5.248-8.749 5.248-14.003 0-6.995-1.747-12.25-5.248-15.75l-40.25-38.496c-5.254-5.254-10.502-7.002-15.75-7.002-7.002 0-10.502 1.747-14.003 7.002l-213.498 211.75c-3.501 3.501-5.254 8.749-5.254 13.997v24.499c-33.247-28-69.997-50.746-110.247-66.496-42-15.75-84-22.752-127.75-22.752-66.5 0-127.75 15.75-183.75 48.998-56 31.501-99.75 75.251-131.251 131.252-33.25 56-49 117.25-49 183.75s15.75 126 49 182c31.5 56 75.251 99.75 131.251 133 56 31.5 117.25 49 183.75 49s126-17.5 182-49c55.997-33.25 99.747-77 133.002-133 31.501-56 48.998-115.5 48.998-182 0-45.5-8.749-87.5-24.499-127.75-15.75-42-36.749-78.75-64.749-110.253h24.499c5.248 0 10.496-1.747 13.997-5.248l213.504-213.498zM428 268c49 0 96.25 12.25 140 36.749 42 24.501 76.998 59.501 101.498 103.251 24.499 42 38.502 89.25 38.502 140 0 49-13.997 96.25-38.502 140-24.499 42-59.498 77-101.498 101.5-43.75 24.5-91 38.5-140 38.5-50.75 0-98-14-140-38.5-43.75-24.5-78.75-59.5-103.25-101.5-24.5-43.75-36.75-91-36.75-140 0-50.75 12.25-98 36.75-140 24.5-43.75 59.5-78.75 103.25-103.251 42-24.499 89.25-36.749 140-36.749z" />
<glyph unicode="&#xe92e;" glyph-name="exchange" d="M911.002 863c5.248 5.251 12.25 7 20.998 3.5s13.997-10.5 13.997-19.25v-250.25c0-7-3.494-12.25-6.995-15.75s-8.749-5.25-14.003-5.25h-250.246c-10.502 0-15.75 3.5-19.251 12.25s-3.501 15.75 3.501 22.749l96.25 96.25c-33.254 31.5-70.003 56-112 73.5-42.001 17.5-85.751 26.25-131.251 26.25-59.5 0-115.5-15.75-166.25-43.75-52.5-28-92.75-68.25-124.25-117.25s-49-103.25-52.5-162.75c0-5.25-3.5-10.5-7-14s-8.75-5.25-14-5.25h-49c-7 0-12.25 1.75-15.75 5.25s-5.25 10.5-5.25 17.5c3.5 73.5 26.25 143.5 64.75 206.5s91 112 157.5 148.75c64.749 36.75 134.75 56 211.75 56 57.75 0 113.75-12.25 166.253-33.25 52.499-22.75 99.744-54.25 140-94.5l92.749 92.749zM924.998 464c5.254 0 10.502-3.5 14.003-7s6.995-8.749 6.995-15.75c-5.248-75.25-28-143.503-66.496-206.498-38.502-63.002-91.002-113.754-155.75-150.502-66.502-36.749-136.5-54.253-211.75-54.253-59.5 0-115.5 10.502-168 33.254-52.5 20.998-99.75 52.499-138.25 94.496l-92.75-92.749c-7-7.002-14-7.002-22.749-3.501s-12.25 8.755-12.25 19.251v250.252c0 5.25 1.75 10.5 5.25 13.999s8.75 7 15.75 7h250.25c8.75 0 15.75-5.25 19.25-14s1.75-15.75-3.5-21.002l-96.25-96.25c31.5-31.501 68.25-56 110.25-73.498 42-17.504 85.75-26.253 133-26.253 59.5 0 113.75 14.003 166.253 42.003 50.746 28 92.749 68.25 124.25 117.248 31.494 49 48.998 105 52.499 164.5 0 3.5 1.747 8.75 5.248 12.25s8.749 7 15.75 7h48.998z" />
<glyph unicode="&#xe92f;" glyph-name="card" d="M947.2 832h-870.4c-38.4 0-76.8-38.4-76.8-89.6v-595.2c0-44.8 38.4-83.2 76.8-83.2h864c44.8 0 76.8 38.4 76.8 89.6v588.8c6.4 51.2-32 89.6-70.4 89.6zM128 704h192v-128h-192v128zM256 192h-128v64h128v-64zM448 192h-128v64h128v-64zM640 192h-128v64h128v-64z" />
<glyph unicode="&#xe930;" glyph-name="earth" d="M512 896c79.484 0 155.354-21.677 224-61.42s122.842-93.935 162.579-162.58c39.744-68.645 61.421-144.516 61.421-224 0-81.29-21.677-155.354-61.421-224-39.738-68.646-93.933-124.646-162.579-164.384-68.646-39.744-144.516-59.616-224-59.616-81.29 0-155.355 19.872-224 59.616-68.645 39.738-124.645 95.738-164.387 164.384s-59.613 142.71-59.613 224c0 79.484 19.871 155.355 59.613 224s95.742 122.838 164.387 162.58c68.645 39.742 142.71 61.42 224 61.42zM837.158 606.968c-21.677 43.355-52.384 81.29-88.512 113.807-37.939 32.516-81.293 56-128.259 72.258 28.906-56 50.582-117.42 65.034-186.065h151.738zM866.067 375.742c9.030 46.968 9.030 95.742 0 144.516h-169.811c3.616-48.774 3.616-97.548 0-144.516h169.811zM414.452 375.742h195.096c3.613 46.968 3.613 95.742 0 144.516h-195.096c-5.42-48.774-5.42-97.548 0-144.516zM595.097 289.030h-166.194c16.259-79.482 43.355-144.512 83.097-196.902 37.935 52.39 65.032 117.421 83.097 196.902zM157.935 520.258c-10.838-48.774-10.838-97.548 0-144.516h169.807c-5.42 46.968-5.42 95.742 0 144.516h-169.807zM427.097 606.968h169.806c-18.065 77.677-46.968 142.71-84.903 196.903-39.742-54.193-66.838-119.226-84.903-196.903zM403.613 793.032c-48.774-16.258-92.129-39.742-128.258-72.258-37.935-32.516-66.839-70.452-88.516-113.807h151.742c14.452 68.645 36.129 130.065 65.032 186.065zM186.838 289.030c21.677-43.354 50.581-81.286 88.516-113.805 36.129-32.518 79.484-57.805 128.258-72.256-30.71 54.189-52.387 117.414-65.032 186.061h-151.742zM620.387 102.97c46.966 14.451 90.32 39.738 128.259 72.256 36.128 32.518 66.835 70.451 88.512 113.805h-151.738c-14.451-68.646-36.128-131.872-65.034-186.061z" />
<glyph unicode="&#xe931;" glyph-name="burger" d="M128 832h768v-85.333h-768v85.333zM128 490.667h768v-85.333h-768v85.333zM128 149.333h768v-85.333h-768v85.333z" />
<glyph unicode="&#xe932;" glyph-name="close-lg" d="M753.361 146.3l60.339 60.339-241.348 241.348 241.374 241.372-60.339 60.34-241.374-241.373-241.371 241.373-60.34-60.34 241.371-241.372-241.346-241.344 60.34-60.343 241.345 241.348 241.348-241.348z" />
<glyph unicode="&#xe933;" glyph-name="dots-h" d="M256 448c0-47.128-38.205-85.333-85.333-85.333s-85.333 38.205-85.333 85.333c0 47.128 38.205 85.333 85.333 85.333s85.333-38.205 85.333-85.333zM597.333 448c0-47.128-38.205-85.333-85.333-85.333s-85.333 38.205-85.333 85.333c0 47.128 38.205 85.333 85.333 85.333s85.333-38.205 85.333-85.333zM938.667 448c0-47.128-38.205-85.333-85.333-85.333s-85.333 38.205-85.333 85.333c0 47.128 38.205 85.333 85.333 85.333s85.333-38.205 85.333-85.333z" />
<glyph unicode="&#xe934;" glyph-name="doublearrow" d="M622.115 817.94l305.939-305.94h-135.763l-238.058 238.058 67.882 67.882zM95.999 608h704.001v-96h-704.001v96zM401.99 110.058l-305.939 305.942h135.763l238.061-238.058-67.885-67.885zM928 320h-704.001v96h704.001v-96z" />
<glyph unicode="&#xe935;" glyph-name="doublearrow-v" d="M156.8 572.8l307.2 307.2v-134.4l-236.8-236.8-70.4 64zM368 48v704h96v-704h-96zM867.2 355.2l-307.2-307.2v134.4l236.8 236.8 70.4-64zM656 880v-704h-96v704h96z" />
<glyph unicode="&#xe936;" glyph-name="vk" d="M993.875 682.75c-3.75-18.75-18.752-50.625-44.998-93.75-18.752-31.875-41.254-67.5-67.501-108.749-22.502-33.75-35.629-50.625-35.629-50.625-7.494-11.25-11.245-20.625-11.245-26.25 0-7.5 3.75-15 11.245-22.5l16.877-18.75c90.003-93.747 140.627-157.498 151.878-191.251 3.75-15.002 1.875-28.122-5.626-35.622s-16.877-11.251-31.878-11.251h-110.624c-15.002 0-26.246 3.75-37.498 13.126-7.501 3.75-22.502 16.87-41.254 39.373-18.746 22.502-35.622 41.248-50.624 56.25-50.624 46.874-88.122 71.251-110.623 71.251-11.25 0-18.75-1.875-22.5-5.626s-5.625-13.126-5.625-24.378c-1.875-9.37-1.875-28.122-1.875-58.125v-48.749c0-14.995-3.75-26.246-11.25-31.872-11.25-7.501-33.75-11.251-67.5-11.251-60 0-118.125 16.877-178.125 52.499-60 33.754-112.5 84.378-157.5 150.001-43.125 56.25-78.75 114.375-106.875 174.375-22.5 45-41.25 86.25-54.375 125.625-9.375 30-13.125 52.5-13.125 65.625 0 20.625 11.25 31.875 37.5 31.875h110.625c13.125 0 22.5-3.75 30-9.375 7.5-7.5 13.125-18.75 18.75-33.75 16.875-50.625 37.5-99.375 63.75-146.25 22.5-45 45-80.625 67.5-106.876 22.5-28.125 39.375-41.25 52.5-41.25 7.5 0 11.25 1.875 15 7.5s5.625 16.875 5.625 33.75v163.125c-1.875 18.75-5.625 37.5-13.125 52.5-3.75 7.5-11.25 16.876-18.75 28.125-9.375 11.25-13.124 18.75-13.124 26.25s1.875 13.125 7.5 18.75c5.625 3.75 13.125 7.5 20.625 7.5h174.375c11.25 0 18.75-3.75 22.5-9.375 3.75-7.5 7.5-16.876 7.5-31.875v-217.5c0-11.25 1.875-20.625 5.625-24.375 3.75-5.625 7.5-7.5 13.125-7.5s13.125 1.875 20.625 5.626c7.501 3.75 16.877 13.124 29.997 28.125 22.502 26.25 46.88 58.125 71.251 97.5 15.002 26.25 31.878 56.25 46.874 90l18.752 37.5c7.501 20.625 24.378 31.875 46.874 31.875h110.63c29.997 0 41.248-15 33.747-41.25z" />
<glyph unicode="&#xe937;" glyph-name="google" d="M1000 436c0 26-4 54-8 84h-472v-172h281.997c-5.997-29.997-17.997-60-33.997-88-24-36-54.003-66.003-89.997-85.997-46.003-28.006-98.003-40-158.003-40-56 0-108 13.997-154 41.997-48 28-84 65.997-112 113.997-28 48.003-42 100.003-42 158.003 0 66 18 126 54 178 32 48 76 84 132 108 54 24 110 32 166 24 60-8 109.997-34 154.003-74l133.997 130c-92 86-204 130-332 130-90 0-172-24-248-68s-138-104-182-180c-44-76-66-160-66-248 0-90 22-172 66-248s106-137.997 182-182.003c76-43.994 158-65.997 248-65.997 94 0 177.997 20 249.997 62.003 72 40 130.003 97.997 170.003 171.994 40 72 60 156.003 60 250.003z" />
<glyph unicode="&#xe938;" glyph-name="podcast" d="M598.013-17.997c8 32 18 75.994 28 129.997 8 60 13.999 104 13.999 136 0 57.997-43.999 88-127.999 88-86 0-128-30.003-128-88 0-32 4-76 14-136 8-54.003 18-96 26-128s38-48 88-48c48 0 78 14.003 86 46.003zM288.013 496c0-56 18-106 56-148 4-6 4-12 2-16-12-16-18-32-22-50.003-2-5.997-6-9.997-10-9.997-4-1.997-8 0-10 4-32 28-56 60-72 98s-24 78-24 122c0 54 12 104 40 150 26 46 62 82 108 110s96 42 152 44c54 0 104-12 151.999-40s86.003-64 114.003-110c28-48 41.997-98 41.997-152 0-44-9.997-86-25.997-124s-40-70-70.003-98c-4-4-8-5.997-12-4-4 0-8 4-8 9.997-4 18.003-12 34.003-21.997 50.003-4 4-2.003 10 1.997 16 36 42 56 92 56 148 0 40-12 78-32 112s-48 62-83.999 82c-36 20-72 30-112 30-40-2-78-12-112-32s-60-48-80-82c-20-34-28-70-28-110zM514.013 960c84 0 164.003-22 236.003-64 72-44 128-100 169.997-172 42.003-72 64-152 64-236 0-96-28-184-80-262.003-52-77.997-121.997-136-205.997-171.994-4-2.003-8-2.003-12 1.997-4 1.997-4 6.003-4 12l12 66.003c0 3.994 1.997 5.997 5.997 9.997 60 32 110.003 80 148 142.003 36 59.997 56 127.997 56 199.997s-17.997 138-53.997 198c-36 60-82.003 106-142.003 142s-125.999 54-195.999 54c-72 0-136-18-196-54s-108-82-144-142c-36-60-52-126-52-198s18-140 58-202c36-60 84-108 146-140 4-4 6-6.003 6-9.997l12-66.003c0-5.997-2-10.003-6-12-4-4-6-4-10-1.997-88 35.994-158 93.997-210 173.997s-78 168-76 264c0 84 22 164 64 236s100 128 172 170c72 40 150 62 238 62zM512.013 640c36 0 66-14 90-38s37.999-54 37.999-90c0-36-13.999-68-37.999-92s-54-36-90-36c-36 0-68 12-92 36s-36 56-36 92c0 36 12 66 36 90s56 38 92 38z" />
<glyph unicode="&#xe939;" glyph-name="facebook-f" d="M402-64h188v458h146l24 182h-170v126c0 28 4 50 16 64 12 16 38 24 74 24h96v162c-36 4-84 8-140 8-72 0-128-22-170-64-44-42-64-100-64-176v-144h-154v-182h154v-458z" />
<glyph unicode="&#xe93a;" glyph-name="instagram" d="M512 678c40 0 78-12 114-32 36.003-20 63.997-48 84.003-84 19.994-36 32-74 32-114 0-42-12.006-80-32-116-20.006-36-48-64-84.003-84-36-20-74-30.003-114-30.003-42 0-80 10.003-116 30.003s-64 48-84 84c-20 36-30 74-30 116 0 40 10 78 30 114s48 64 84 84c36 20 74 32 116 32zM512 297.997c40 0 76 14.003 106 44.003 28.003 28 44.003 64 44.003 106 0 40-16 76-44.003 106-30 28-66 44-106 44-42 0-78-16-106-44-30-30-44-66-44-106 0-42 14-78 44-106 28-30 64-44.003 106-44.003zM806.003 688c0 14-6.003 26-16 38-12.006 10-24 16-38.003 16-16 0-28-6-38.003-16-11.994-12-16-24-16-38 0-16 4.006-28 16-38 10.003-12 22.003-16 38.003-16 14.003 0 25.997 4 36 16 10.003 10 16 22 18.003 38zM958.003 634c0-38 1.997-100 1.997-186 0-88-1.997-150.003-4-188s-8-69.997-16-98.003c-12-33.997-32-64-56-88s-53.997-41.997-85.997-53.997c-28.006-10.003-62.003-16-100.006-18.003-37.997-1.997-99.997-1.997-185.997-1.997-88 0-150 0-188 1.997-38 2.003-70 8-98 20.006-34 9.997-64 27.994-88 51.994s-42 54.003-54 88c-10 28.006-16 60.006-18 98.003s-2 100-2 188c0 86 0 148 2 186s8 72 18 100c12 32 30 62 54 86s54 44 88 56c28 8 60 14 98 16s100 4 188 4c86 0 148-2 185.997-4 38.003-2 72-8 100.006-16 32-12 61.997-32 85.997-56s44-54 56-86c8-28 13.997-62 18.003-100zM862.003 184c8 22.003 11.994 57.997 16 108 0 28 1.997 70 1.997 124v64c0 54-1.997 96-1.997 124-4.006 50-8 86-16 108-16 40-46.003 70-86.003 86-22.003 8-57.997 12-108 16-30 0-72 2-124 2h-64c-54 0-96-2-124-2-50-4-86-8-108-16-42-16-70-46-86-86-8-22-14-58-16-108-2-30-2-72-2-124v-64c0-54 0-96 2-124 2-50.003 8-85.997 16-108 16-41.997 46-70.003 86-86.003 22-8 58-13.997 108-16 28-1.997 70-1.997 124-1.997h64c54 0 96 0 124 1.997 50.003 2.003 85.997 8 108 16 40 16 70.003 46.003 86.003 86.003z" />
<glyph unicode="&#xe93b;" glyph-name="reddit" d="M880.013 554c36 0 64-14 84-40 20-28 25.997-56 20-88-6.003-32-24-56-56-72 4-16 5.997-32 5.997-50 0-56-20-108-57.997-153.997-38.003-46.003-88-82.003-152-110.003s-136.001-40-212.001-40c-76 0-146 12-210 40s-116 64-154 110.003c-38 45.997-56 97.997-56 153.997 0 16 2 32 6 48-34 16-54 42-60 74s2 60 22 88c20 26 48 38 84 38 28 0 54-12 76-32 76 52 166 82 272 86l62 276c0 4 4 6 8 10s8 4 14 4l193.998-44c6.003 12 16 24 28 32s26.003 12 42.003 12c21.997 0 40-8 56-24s24-34 24-56c0-22-8-40-24-56s-34.003-22-56-22c-22.003 0-40 6-56 22s-22.003 34-22.003 56l-175.998 40-56-250c52-2 102-10 150.001-26 45.997-16 88-34 124-58 20 20 45.997 30 76 32zM258.012 342c0-22 8-39.997 24-55.997s34-22.003 56-22.003c20 0 38 6.003 54 22.003s24 33.997 24 55.997c0 22-8 40-24 56s-34 24-54 24c-22 0-40-8-56-24s-24-34-24-56zM688.013 156c4 2.003 5.997 5.997 5.997 12 0 4-1.997 9.997-5.997 14.003-4 3.994-10.003 5.997-14.003 5.997-5.997 0-9.997-2.003-13.997-5.997-20-20.006-50.001-32-90.001-38.003-40-8-80-8-120 0s-70 20-88 38.003c-4 3.994-8 5.997-12 5.997-6 0-10-2.003-14-5.997-4-4.006-6-10.003-6-14.003 0-6.003 2-9.997 6-12 24-24 58-42.003 106-50.003 46-8 92-8 140 0 46 8 82.001 26.003 106.001 50.003zM686.010 264c20 0 40 6.003 56 22.003s24 33.997 24 55.997c0 22-8 40-24 56s-36 24-56 24c-21.997 0-40-8-55.998-24-16-16-22-36-22-56 0-22 6-39.997 22-55.997 15.998-16 34.001-22.003 55.998-22.003z" />
<glyph unicode="&#xe93c;" glyph-name="youtube" d="M1003.251 700.312c7.501-33.75 15.002-86.25 18.752-153.75l1.869-93.75-1.869-93.75c-3.75-71.248-11.251-121.872-18.752-155.626-7.501-22.502-18.752-41.248-33.754-56.25-16.87-16.877-35.622-28.122-58.125-33.747-33.747-9.376-108.749-15.002-228.749-18.752l-170.624-1.875-170.625 1.875c-120 3.75-196.875 9.376-228.749 18.752-22.5 5.626-43.125 16.87-58.125 33.747-16.875 15.002-28.125 33.747-33.75 56.25-9.375 33.754-15 84.378-18.75 155.626l-1.875 93.75c0 26.25 0 58.125 1.875 93.75 3.75 67.5 9.375 120 18.75 153.75 5.625 22.5 16.875 41.25 33.75 58.125 15 15 35.625 26.25 58.125 33.75 31.875 7.5 108.749 15 228.749 18.75l170.625 1.875 170.624-1.875c120-3.75 195.002-11.25 228.749-18.75 22.502-7.5 41.254-18.75 58.125-33.75 15.002-16.876 26.253-35.625 33.754-58.125zM407 299.066l268.123 153.747-268.123 151.875v-305.622z" />
<glyph unicode="&#xe93d;" glyph-name="volume" d="M458.667 706.671c0 10-5.001 20-11.665 28.334-8.337 6.667-18.334 11.666-28.335 11.666-11.667 0-21.667-5-28.333-11.666l-148.333-148.334h-170c-11.667 0-21.667-5-28.333-11.666-8.333-8.334-11.667-18.333-11.667-28.334v-240c0-11.665 3.333-21.666 11.667-28.331 6.667-8.337 16.666-11.669 28.333-11.669h170l148.333-148.331c6.667-8.337 16.666-11.669 28.333-11.669 10.001 0 19.998 3.332 28.335 11.669 6.665 6.665 11.665 16.666 11.665 28.331v560zM762.001 836.672c69.999-43.334 125.001-101.667 166.665-175 41.668-73.333 63.334-151.668 63.334-235.001 0-80-18.334-153.331-55.002-223.334-36.663-69.999-88.333-126.665-151.667-171.665-13.329-8.333-26.667-11.665-39.996-8.333-15.002 1.668-26.667 8.333-35.004 21.666-8.333 11.665-11.665 24.998-8.333 40 3.332 13.333 10.001 24.998 21.666 34.999 50.001 33.335 90.001 78.336 118.336 133.333 28.331 53.333 43.332 111.667 43.332 173.333 0 66.667-16.666 126.667-48.333 183.334-33.335 56.666-76.668 101.667-130.001 135-13.333 6.667-21.666 18.333-24.998 33.333-3.337 13.333-1.668 26.667 6.665 40 6.669 13.333 18.334 21.667 33.335 25 13.333 3.333 26.667 0 40-6.667zM832 426.671c0-53.333-13.333-101.666-36.668-148.331-24.998-46.669-58.334-85.001-101.666-115.004-10.001-6.665-19.998-9.997-29.999-9.997-20.002 0-33.335 6.665-43.332 23.33-10.001 11.669-13.333 25.003-10.001 40 3.332 13.333 10.001 25.003 23.334 35.004 28.331 19.998 49.997 44.996 66.667 76.663 16.666 30.003 24.998 63.334 24.998 98.334 0 36.668-10.001 71.667-28.335 105.003-18.334 31.665-43.332 56.665-73.331 76.665-13.333 6.667-21.666 18.333-25.003 33.333-3.332 13.333-1.664 26.667 6.669 40 6.669 13.333 18.334 21.667 33.335 25 13.329 3.334 26.667 0 39.996-6.667 46.669-30 83.337-68.333 111.667-116.666 26.667-48.333 41.668-100.002 41.668-156.667zM672 426.671c0-26.667-6.665-51.665-18.334-74.999-13.333-23.334-29.999-41.668-50.001-56.666-13.333-8.333-26.667-11.669-40-8.333-14.997 1.664-26.667 8.333-34.999 21.666-8.333 11.665-11.665 24.998-8.333 40 1.668 13.333 8.333 24.998 21.666 34.999 15.002 10.001 23.334 23.334 23.334 43.332 0 20.002-8.333 34.999-24.998 45.001-13.333 6.669-21.67 18.334-25.003 33.335-3.332 13.333-1.664 26.667 6.669 39.998 6.665 13.333 18.334 21.667 33.331 25 13.333 3.333 26.667 0 40-6.667 23.334-15 43.337-35.001 56.666-58.331 13.338-25.003 20.002-51.669 20.002-78.336z" />
<glyph unicode="&#xe93e;" glyph-name="book" d="M885.333 253.333c0-13.333-5.001-24.998-15.002-31.667-3.332-13.333-5.001-33.331-5.001-61.666 0-29.999 1.668-50.001 5.001-61.666 10.001-10.001 15.002-20.002 15.002-31.667v-26.667c0-11.665-5.001-21.666-11.665-28.335-8.337-8.333-18.334-11.665-28.335-11.665h-546.667c-45 0-83.333 15.002-113.333 46.669-31.667 29.999-46.667 68.331-46.667 113.331v533.333c0 43.333 15 81.667 46.667 113.333 30 30 68.333 46.667 113.333 46.667h546.667c10.001 0 19.998-5 28.335-11.667 6.665-8.333 11.665-18.333 11.665-28.333v-560zM352 630v-33.333c0-3.334 0-5 3.333-6.667 1.667-3.333 3.334-3.333 6.667-3.333h353.332c1.668 0 3.337 0 6.669 3.333 1.664 1.667 3.332 3.334 3.332 6.667v33.333c0 1.667-1.668 3.334-3.332 6.667-3.332 1.667-5.001 3.333-6.669 3.333h-353.332c-3.334 0-5-1.667-6.667-3.333-3.333-3.334-3.333-5-3.333-6.667zM352 523.332v-33.331c0-3.337 0-5.001 3.333-6.669 1.667-3.332 3.334-3.332 6.667-3.332h353.332c1.668 0 3.337 0 6.669 3.332 1.664 1.668 3.332 3.332 3.332 6.669v33.331c0 1.668-1.668 3.337-3.332 6.669-3.332 1.664-5.001 3.332-6.669 3.332h-353.332c-3.334 0-5-1.668-6.667-3.332-3.333-3.332-3.333-5.001-3.333-6.669zM773.666 106.667c-1.664 13.333-1.664 31.667-1.664 53.333 0 20.002 0 38.332 1.664 53.333h-474.999c-15 0-28.333-6.665-38.333-16.666s-15-23.334-15-36.668c0-15.002 5-28.335 15-38.332 10-10.001 23.334-15.002 38.333-15.002h474.999z" />
<glyph unicode="&#xe93f;" glyph-name="filter" d="M876 912c24.499 0 43.75-8.75 59.501-24.5 15.75-17.5 24.499-36.75 24.499-59.5s-8.749-42-24.499-59.5l-283.501-283.5v-386.747c0-22.752-8.749-42.003-22.75-56-14-15.75-33.25-24.506-54.25-26.253-21-3.501-40.25 1.747-57.75 15.75l-112 82.246c-22.75 19.251-33.25 42.003-33.25 70.003v301l-283.5 283.5c-17.5 17.5-24.5 36.75-24.5 59.5s7 42 22.75 59.5c15.75 15.75 36.75 24.5 61.25 24.5h728zM568 520l308 308h-728l308-308v-336l112-84v420z" />
<glyph unicode="&#xe940;" glyph-name="print" d="M792 556.797c45.498 0 85.747-17.5 119.002-49 31.501-33.251 48.998-73.5 48.998-119v-238c0-12.25-5.248-22.752-12.25-29.747-8.749-8.755-19.251-12.25-29.747-12.25h-126.003v-70.003c0-12.25-5.248-22.752-12.25-29.747-8.749-8.755-19.251-12.25-29.747-12.25h-476.003c-12.25 0-22.75 3.494-29.75 12.25-8.75 6.995-12.25 17.498-12.25 29.747v70.003h-126c-12.25 0-22.75 3.494-29.75 12.25-8.75 6.995-12.25 17.498-12.25 29.747v238c0 45.5 15.75 85.75 49 119 31.5 31.5 71.75 49 119 49v294c0 10.5 3.5 21 12.25 29.75 7 7 17.5 12.25 29.75 12.25h374.499c10.502 0 20.998-5.25 29.754-12.25l101.498-101.5c7.002-8.75 12.25-19.25 12.25-29.75v-192.5zM316 808.797v-336h392v259l-77 77h-315zM708 80.8v140h-392v-140h392zM876 192.8v195.997c0 22.75-8.749 42-24.499 59.5-17.504 15.75-36.749 24.5-59.501 24.5v-42c0-12.25-5.248-22.75-12.25-29.75-8.749-8.75-19.251-12.25-29.747-12.25h-476.003c-12.25 0-22.75 3.5-29.75 12.25-8.75 7-12.25 17.5-12.25 29.75v42c-24.5 0-43.75-8.75-59.5-24.5-17.5-17.5-24.5-36.75-24.5-59.5v-195.997h84v69.997c0 10.502 3.5 20.998 12.25 29.747 7 7.002 17.5 12.256 29.75 12.256h476.003c10.496 0 20.998-5.254 29.747-12.256 7.002-8.749 12.25-19.245 12.25-29.747v-69.997h84zM862.003 360.797c0 10.5-5.254 21-12.256 29.75-8.749 7-19.245 12.25-29.747 12.25-12.25 0-22.752-5.25-29.747-12.25-8.755-8.749-12.256-19.25-12.256-29.75 0-12.25 3.501-22.75 12.256-29.75 6.995-8.75 17.498-12.25 29.747-12.25 10.502 0 20.998 3.5 29.747 12.25 7.002 7 12.256 17.5 12.256 29.75z" />
<glyph unicode="&#xe941;" glyph-name="linkedin" d="M295.313 72v523.25h-162.75v-523.25h162.75zM214.813 667c24.5 0 47.25 8.75 66.5 28 17.5 17.5 28 40.25 28 66.5 0 24.5-10.5 47.25-28 66.5-19.25 17.5-42 28-66.5 28-26.25 0-49-10.5-66.5-28-19.25-19.25-28-42-28-66.5 0-26.25 8.75-49 28-66.5 17.5-19.25 40.25-28 66.5-28zM904.311 72v287.002c0 80.499-12.25 139.998-34.999 178.499-31.501 47.25-83.998 71.75-159.249 71.75-38.502 0-69.999-10.5-98.001-28-26.249-15.75-45.5-35-56-57.751h-1.749v71.751h-155.75v-523.25h160.998v258.999c0 40.252 5.252 71.753 17.502 92.749 13.999 28.002 40.252 42.001 78.75 42.001 36.749 0 61.252-15.748 75.251-47.249 6.997-19.251 10.5-48.998 10.5-90.999v-255.501h162.748z" />
<glyph unicode="&#xe942;" glyph-name="chat" horiz-adv-x="1289" d="M502.519 209.628c88.891 0 173.333 15.557 248.889 48.89 75.556 31.111 137.777 75.556 182.223 131.11 44.445 55.558 66.666 115.557 66.666 182.223 0 66.668-22.221 126.668-66.666 182.223s-106.667 100-182.223 133.334c-75.556 31.111-159.998 48.889-248.889 48.889-91.109 0-175.556-17.778-251.111-48.889-75.556-33.333-135.556-77.778-180-133.334s-66.667-115.555-66.667-180.001c0-84.442 33.333-157.776 102.222-220.001-8.889-44.442-20-77.775-33.333-102.222-8.889-17.776-24.444-35.556-46.667-53.331l-11.111-11.112c-8.889-8.89-13.333-15.553-11.111-19.998 2.222-8.89 8.889-13.335 17.778-13.335h2.222c93.333 8.89 175.556 42.223 246.667 97.777 71.111-28.888 148.888-42.223 231.111-42.223zM1273.628-28.149l2.222-2.222c6.667-6.667 8.89-11.109 8.89-15.553-2.222-4.445-4.445-8.89-8.89-11.112s-6.667-2.222-8.89-2.222c-88.887 8.89-164.443 37.778-228.887 88.891-68.889-26.67-140-37.778-215.556-37.778-68.889 0-133.332 8.886-193.335 28.888-59.999 19.998-111.108 46.664-153.331 82.22 111.112-4.441 215.556 15.557 313.333 55.558s173.333 97.777 231.109 168.888c57.78 73.334 86.668 155.557 86.668 246.666v8.889c64.444-37.778 111.112-84.445 142.222-137.777 31.111-53.335 40-108.889 31.111-166.669-11.112-57.776-40-111.108-88.887-155.553 4.441-40 15.553-71.111 28.888-93.332 8.89-15.557 22.221-31.114 42.223-48.89 4.441-4.445 6.664-8.89 11.109-8.89z" />
<glyph unicode="&#xe943;" glyph-name="minus" d="M960 512v-128h-896v128h896z" />
<glyph unicode="&#xe944;" glyph-name="portal" horiz-adv-x="1126" d="M1020.8 953.6c28.6 0 52.803-11 74.798-30.8 19.804-22 30.802-46.2 30.802-74.8v-774.4c0-30.802-10.998-54.999-30.802-74.798-21.996-22.001-46.198-30.802-74.798-30.802h-915.2c-30.8 0-55 8.801-74.8 30.802-22 19.799-30.8 43.996-30.8 74.798v774.4c0 28.6 8.8 52.8 30.8 74.8 19.8 19.8 44 30.8 74.8 30.8h915.2zM281.6 698.4v88.001c0 6.6-4.4 13.2-8.8 17.599s-11 8.8-17.599 8.8h-88.001c-8.8 0-15.4-4.4-19.8-8.8s-6.6-11-6.6-17.599v-88.001c0-8.8 2.2-15.4 6.6-19.8s11-6.6 19.8-6.6h88.001c6.6 0 13.2 2.2 17.599 6.6s8.8 11 8.8 19.8zM985.6 698.4v88.001c0 6.6-4.398 13.2-8.801 17.599-4.398 4.4-10.998 8.8-17.597 8.8h-545.602c-8.8 0-15.4-4.4-19.8-8.8s-6.6-11-6.6-17.599v-88.001c0-8.8 2.2-15.4 6.6-19.8s11-6.6 19.8-6.6h545.602c6.6 0 13.199 2.2 17.597 6.6 4.403 4.4 8.801 11 8.801 19.8z" />
<glyph unicode="&#xe945;" glyph-name="skype" d="M971.425 347.429c34.289-45.714 52.575-98.286 52.575-155.429 0-45.714-11.425-89.147-34.289-128-22.85-41.143-54.857-70.861-93.711-93.711-41.143-22.864-82.286-34.289-128-34.289-59.429 0-109.714 16.004-155.429 52.575-34.286-6.861-68.571-9.143-100.571-9.143-86.857 0-164.571 20.568-235.429 61.711-73.143 41.143-130.286 98.282-171.429 171.425-41.143 70.861-61.714 148.575-61.714 235.432 0 32 2.286 64 9.143 100.571-36.571 45.714-52.571 96-52.571 155.429 0 45.714 11.429 86.857 34.286 128 22.857 38.857 52.571 70.857 93.714 93.714 38.857 22.857 82.286 34.286 128 34.286 57.143 0 109.714-18.286 155.429-52.571 32 4.571 66.286 9.143 100.571 9.143 84.571 0 162.286-22.857 235.432-64 70.853-41.143 128-98.286 169.136-169.143 41.15-73.143 64-150.857 64-235.429 0-32-4.564-66.286-9.143-100.571zM525.714 139.425c68.571 0 125.714 16.004 176 48.004 52.571 36.571 80 84.571 80 148.571 0 50.286-22.857 93.714-68.571 125.714-32 20.571-80 38.857-139.429 52.571l-36.571 6.857c-48 11.429-77.714 20.571-91.429 27.429-20.571 9.143-29.714 22.857-29.714 41.143 0 32 32 50.286 96 50.286 25.143 0 48-4.571 68.571-13.714 9.143-6.857 22.857-16 41.143-29.714 9.143-13.714 18.286-20.571 27.429-22.857 9.143-6.857 20.571-9.143 34.286-9.143 20.571 0 36.571 6.857 50.282 20.571 13.722 13.714 20.575 29.714 20.575 52.571 0 36.571-27.429 66.286-80 91.429-50.286 22.857-109.714 34.286-176 34.286s-121.143-13.714-166.857-41.143c-54.857-34.286-80-82.286-80-144 0-43.429 9.143-77.714 32-102.857 16-22.857 43.429-41.143 82.286-54.857 22.857-9.143 61.714-20.571 116.571-32l45.714-11.429c32-9.143 54.857-16 64-20.571 16-9.143 25.143-22.857 25.143-41.143s-9.143-34.286-27.429-45.714c-18.286-11.429-43.429-16-73.143-16s-54.857 6.857-77.714 20.571c-13.714 6.857-32 20.571-50.286 41.143-13.714 13.714-25.143 25.143-32 29.714-13.714 6.857-25.143 11.429-38.857 11.429-22.857 0-38.857-6.857-50.286-20.571s-16-29.714-16-48c0-27.429 11.429-52.571 36.571-75.432 22.857-22.85 57.143-41.136 100.571-54.857 41.143-13.707 86.857-18.286 137.143-18.286z" />
<glyph unicode="&#xe946;" glyph-name="maximize" d="M64 96c0-25.997 10-48 28-68 20-17.997 42-28 68-28h704c28 0 50.003 10.003 68 28 20 20 28 42.003 28 68v704c0 28-8 50-28 68-17.997 20-40 28-68 28h-704c-26 0-48-8-68-28-18-18-28-40-28-68v-704zM864 108c0-1.997 0-4-4-8-1.997-1.997-4-4-8-4h-680c-1.236 0-2.472 0.762-4.18 1.818-1.055 0.653-2.292 1.421-3.82 2.182-0.764 1.53-1.528 2.765-2.18 3.821h-0.001c-1.055 1.709-1.82 2.944-1.82 4.179v680c0 4 2 6 4 8 4 4 6 4 8 4h680c4 0 6.003 0 8-4 4-2 4-4 4-8v-680zM256 277.331v170.669h85.333v-170.669h170.667v-85.331h-256v85.331zM768 448v256h-256v-85.333h170.669v-170.667h85.331z" />
<glyph unicode="&#xe947;" glyph-name="minimize" d="M352 800h96v-704h-96v704zM864 896c25.997 0 48-10 68-28 18.003-20 28-42 28-68v-704c0-28-9.997-49.997-28-68-20-20-41.997-28-68-28h-704c-28 0-50 8-68 28-20 18.003-28 40-28 68v704c0 26 8 48 28 68 18 18 40 28 68 28h704zM852 96c2.003 0 4 0 8 4 2.003 2.003 4 4 4 8v680c0 2-1.997 4-4 8-4 2-5.997 4-8 4h-680c-4 0-6-2-8-4-4-4-4-6-4-8v-680c0-4 0-5.997 4-8 2-4 4-4 8-4h680z" />
<glyph unicode="&#xe948;" glyph-name="users" d="M938.669 846.219h-853.336c-47.111 0-85.333-38.222-85.333-85.334v-625.775c0-47.117 38.222-85.338 85.333-85.338h853.336c47.11 0 85.331 38.221 85.331 85.338v625.775c0 47.112-38.221 85.334-85.331 85.334zM938.669 135.11h-853.336v625.775h853.336v-625.775zM369.778 447.997c62.755 0 113.778 51.022 113.778 113.777s-51.023 113.778-113.778 113.778c-62.756 0-113.778-51.022-113.778-113.778s51.022-113.777 113.778-113.777zM210.489 220.442h318.578c22.044 0 39.822 15.29 39.822 34.131v34.138c0 56.531-53.511 102.397-119.467 102.397-19.2 0-33.244-14.223-79.644-14.223-47.822 0-59.378 14.223-79.645 14.223-65.955 0-119.466-45.867-119.466-102.397v-34.138c0-18.842 17.777-34.131 39.822-34.131zM640 447.997h199.11c7.821 0 14.221 6.4 14.221 14.222v28.444c0 7.823-6.4 14.222-14.221 14.222h-199.11c-7.822 0-14.222-6.399-14.222-14.222v-28.444c0-7.822 6.4-14.222 14.222-14.222zM640 561.774h199.11c7.821 0 14.221 6.4 14.221 14.223v28.444c0 7.822-6.4 14.222-14.221 14.222h-199.11c-7.822 0-14.222-6.4-14.222-14.222v-28.444c0-7.823 6.4-14.223 14.222-14.223z" />
<glyph unicode="&#xe949;" glyph-name="support" d="M512-32c265.094 0 480 214.906 480 480 0 265.098-214.906 480-480 480-265.098 0-480-214.902-480-480 0-265.094 214.902-480 480-480zM311.875 116.493l103.377 103.373c61.56-26.138 131.86-26.17 193.498 0l103.379-103.373c-122.358-74.17-277.898-74.17-400.253 0zM666.842 448c0-85.378-69.464-154.842-154.842-154.842s-154.838 69.464-154.838 154.842c0 85.378 69.46 154.838 154.838 154.838s154.842-69.46 154.842-154.838zM843.507 247.872l-103.373 103.379c26.138 61.56 26.17 131.86 0 193.498l103.373 103.377c74.17-122.356 74.17-277.895 0-400.253zM712.122 779.51l-103.375-103.376c-61.56 26.138-131.86 26.172-193.496 0l-103.377 103.376c122.356 74.166 277.895 74.166 400.247 0zM180.49 648.125l103.376-103.377c-26.14-61.56-26.172-131.86 0-193.498l-103.376-103.379c-74.166 122.358-74.166 277.898 0 400.253z" />
<glyph unicode="&#xe94a;" glyph-name="shield-alt" d="M512 160v580.5l-267.937-111.562c15.75-217.875 122.25-379.875 267.937-468.938zM906.688 771.062l-360.001 150c-10.966 4.549-22.721 6.891-34.594 6.891s-23.628-2.342-34.593-6.891l-360-150c-33.563-13.875-55.5-46.687-55.5-83.062 0-372.186 214.687-629.44 415.313-713.062 22.125-9.19 47.062-9.19 69.187 0 160.687 66.938 415.497 298.125 415.497 713.062 0 36.375-21.933 69.187-55.309 83.062zM512 57.997c-182.813 76.128-360 312.566-360 630.003l360 150 360-150c0-325.875-184.499-556.877-360-630.003z" />
<glyph unicode="&#xe94b;" glyph-name="mailbox" d="M902.003 808h-780.003c-49.706 0-90-40.294-90-90v-540.003c0-49.702 40.294-89.997 90-89.997h780.003c49.702 0 89.997 40.294 89.997 89.997v540.003c0 49.706-40.294 90-89.997 90zM902.003 718v-76.509c-42.042-34.236-109.069-87.471-252.352-199.668-31.579-24.838-94.129-84.51-137.651-83.814-43.515-0.703-106.086 58.986-137.649 83.814-143.263 112.181-210.304 165.427-252.351 199.668v76.509h780.003zM122 177.997v348.007c42.964-34.221 103.892-82.241 196.759-154.961 40.982-32.259 112.751-103.471 193.241-103.043 80.094-0.429 150.957 69.75 193.222 103.027 92.864 72.719 153.811 120.752 196.781 154.975v-348.005h-780.003z" />
<glyph unicode="&#xe94c;" glyph-name="career" d="M243.947 406.053c12.109-12.109 31.736-12.109 43.846 0l100.207 100.188 164.087-164.087c12.109-12.109 31.736-12.109 43.846 0l213.552 213.571 57.133-57.156c29.299-29.295 79.379-8.545 79.379 32.879v195.552c0 17.127-13.869 31-30.995 31h-195.552c-41.427 0-62.176-50.084-32.883-79.379l57.158-57.137-169.725-169.725-164.087 164.087c-12.109 12.109-31.736 12.109-43.846 0l-144.033-144.034c-12.109-12.109-12.109-31.736 0-43.846l21.913-21.913zM976.998 168.998h-867.999v620.001c0 17.128-13.872 31-31 31h-31c-17.127 0-31-13.873-31-31v-651.003c0-34.234 27.764-61.997 62-61.997h898.998c17.126 0 31.002 13.875 31.002 31.002v30.995c0 17.133-13.875 31.002-31.002 31.002z" />
<glyph unicode="&#xe94d;" glyph-name="bullhorn" d="M938.682 566.533v254.788c0 14.584-11.635 53.351-53.318 53.351h-0.013c-11.872 0-23.654-3.967-33.306-11.7l-141.715-113.385c-71.186-56.901-160.554-88.252-251.656-88.252h-320.005c-58.918 0-106.669-47.751-106.669-106.669v-160.003c0-58.918 47.751-106.67 106.669-106.67l-0.8-53.331c0-66.285 15.434-128.922 42.6-184.902 8.65-17.818 27.534-28.435 47.334-28.435h177.136c43.418 0 69.485 49.734 43.168 84.269-27.334 35.866-43.585 80.602-43.585 129.069 0 18.515 2.7 36.314 7.35 53.331h46.801c91.101 0 180.47-31.347 251.636-88.25l141.722-113.389c9.453-7.558 21.19-11.686 33.299-11.699 41.536 0 53.338 37.971 53.338 53.338v254.787c31.75 18.483 53.331 52.484 53.331 91.868 0.019 39.4-21.568 73.401-53.318 91.885zM244.887 101.325c-17.933 42.419-27.017 87.187-27.017 133.338 0 23.699 2.867 42.234 4.333 53.331h108.185c-3.484-17.83-5.867-35.68-5.867-53.331 0-47.034 10.967-92.339 32.017-133.338h-111.652zM432.007 367.996h-293.338c-14.701 0-26.668 11.967-26.668 26.668v160.003c0 14.7 11.967 26.667 26.668 26.667h293.338v-213.337zM858.682 183.494l-98.4 78.733c-71.334 57.037-157.988 92.285-248.273 102.419v220.037c90.285 10.134 176.939 45.384 248.286 102.435l98.387 78.718v-582.342z" />
<glyph unicode="&#xe94e;" glyph-name="bookmark" d="M782.003 928h-540.003c-49.706 0-90-40.294-90-90v-870l360 209.997 360-209.997v870c0 49.706-40.294 90-89.997 90zM782.003 124.691l-270.003 157.504-270-157.504v702.059c0 2.984 1.185 5.845 3.295 7.955s4.971 3.295 7.955 3.295h517.502c6.214 0 11.251-5.030 11.251-11.242v-702.067z" />
<glyph unicode="&#xe94f;" glyph-name="coins" d="M640 960c-212.129 0-384-171.871-384-384s171.871-384 384-384c212.128 0 384 171.871 384 384s-171.872 384-384 384zM640 266.323c-171.871 0-309.677 137.806-309.677 309.677 0 170.323 137.807 309.677 309.677 309.677 170.323 0 309.677-139.355 309.677-309.677 0-171.871-139.354-309.677-309.677-309.677zM580.209 378.879l-87.177 0.002c-10.604 0.001-19.199 8.596-19.199 19.2v35.841c0 10.604 8.596 19.2 19.2 19.2h23.176v245.922c-8.345-0.014-16.13-0.030-23.194-0.046-10.604-0.024-19.223 8.548-19.252 19.151l-0.1 35.84c-0.029 10.604 8.541 19.224 19.145 19.249 10.394 0.024 22.351 0.047 35.355 0.065 16.067 0.022 33.74 0.036 52.047 0.033v31.145c0 10.604 8.596 19.2 19.2 19.2h35.84c10.607 0 19.202-8.596 19.202-19.201v-31.267c7.45-0.026 14.79-0.057 21.952-0.093 67.354-0.341 110.342-47.853 112.070-100.451 0.666-20.148-4.877-40.712-17.165-58.168 3.469-2.828 6.778-5.831 9.92-9 24.998-25.212 37.146-58.68 37.286-91.56 0.141-32.892-11.712-66.529-36.358-92.291-25.043-26.178-61.178-42.051-105.344-42.763l-22.362-0.009v-31.357c0-10.604-8.595-19.2-19.202-19.2h-35.84c-10.604 0-19.2 8.596-19.2 19.2v31.359zM590.449 453.121h85.448c26.202 0.483 42.682 9.46 52.614 19.845 10.362 10.837 15.834 25.521 15.763 40.654-0.064 15.145-5.651 29.405-15.763 39.608-9.274 9.352-24.454 17.409-48.422 17.67-1.338-0.022-2.688-0.028-4.038-0.017h-85.602v-117.76zM590.449 645.121h85.455c1.242 0.020 2.483 0.027 3.718 0.022 16.314 0.415 24.557 5.419 28.422 9.134 4.25 4.081 6.438 9.631 6.234 15.951-0.378 11.526-9.606 28.507-38.253 28.652-27.155 0.138-56.897 0.197-85.576 0.212v-53.971zM256.052 569.613c-146.116-29.617-256.052-158.74-256.052-313.613 0-176.774 143.226-320 320-320 154.874 0 283.997 109.933 313.613 256.051-21.144 0.346-41.873 2.4-62.054 6.029-26.32-115.046-129.379-200.147-251.56-200.147-143.226 0-258.065 114.842-258.065 258.067 0 122.181 85.097 225.239 200.146 251.559-3.631 20.181-5.684 40.91-6.029 62.054zM288.503 421.146c-48.781-1.572-87.213-42.746-87.213-92.888 0-40.002 25.807-77.416 63.226-87.74l92.904-28.39c11.613-3.872 19.355-15.482 19.355-29.677 0-16.774-11.613-29.677-27.097-29.677h-58.065c-9.032 0-16.774 1.293-24.516 6.451-9.032 5.158-19.355 3.872-25.807-2.579l-15.484-14.195c-10.323-9.030-7.742-24.518 2.58-32.256 18.065-11.616 38.71-19.354 60.645-19.354v-20.646c0-11.616 9.032-20.646 20.645-20.646h20.645c10.323 0 20.645 9.030 20.645 20.646v20.646c47.742 0 87.742 41.286 87.742 91.61 0 40-25.807 77.421-63.226 89.030l-92.904 27.098c-11.613 3.872-20.645 16.774-20.645 29.679 0 16.774 12.903 30.968 27.097 30.968h33.962c-13.311 19.429-24.883 40.144-34.491 61.92z" />
<glyph unicode="&#xe950;" glyph-name="calculator" d="M864 960h-704c-52 0-96-46-96-96v-832c0-52 44-96 96-96h704c49.997 0 96 44 96 96v832c0 50-46.003 96-96 96zM864 32h-704v512h704v-512zM864 640h-704v224h704v-224zM280 320h78c12 0 26 12 26 24v78c0 12-14 26-26 26h-78c-12 0-24-14-24-26v-78c0-12 12-24 24-24zM664 128h78.003c11.994 0 25.997 12 25.997 24v270c0 12-14.003 26-25.997 26h-78.003c-12 0-24-14-24-26v-270c0-12 12-24 24-24zM280 128h78c12 0 26 12 26 24v78.003c0 11.994-14 25.997-26 25.997h-78c-12 0-24-14.003-24-25.997v-78.003c0-12 12-24 24-24zM472 320h78c12 0 26 12 26 24v78c0 12-14 26-26 26h-78c-12 0-24-14-24-26v-78c0-12 12-24 24-24zM472 128h78c12 0 26 12 26 24v78.003c0 11.994-14 25.997-26 25.997h-78c-12 0-24-14.003-24-25.997v-78.003c0-12 12-24 24-24z" />
<glyph unicode="&#xe951;" glyph-name="Union" horiz-adv-x="2048" d="M0 960.001h2048v-341.333h-2048v341.333zM2048-64h-2048v341.333h2048v-341.333z" />
<glyph unicode="&#xe952;" glyph-name="sell" d="M244.586 571.424c-5.141-3.425-6.857-8.573-6.857-13.712 0-6.857 1.713-11.999 6.857-15.425l32.571-34.284c3.425-3.425 8.573-5.141 15.425-5.141 5.141 0 10.286 1.713 13.712 6.857l161.134 166.276v-426.832c0-6.857 1.713-12.003 5.141-15.429s8.573-5.141 15.425-5.141h47.996c5.141 0 10.286 1.709 13.712 5.141s6.857 8.573 6.857 15.429v426.832l161.134-166.276c3.425-5.141 6.857-6.857 13.712-6.857 5.141 0 10.286 1.713 15.425 6.857l34.29 32.571c3.425 3.425 5.141 8.573 5.141 15.425 0 5.141-1.709 10.286-5.141 13.712l-253.702 255.413c-5.141 3.425-10.286 5.141-15.425 5.141-6.857 0-10.286-1.713-13.712-5.141l-253.7-255.413zM820.555 153.158c5.144 0 10.286-3.425 13.712-6.857s6.857-8.573 6.857-13.712v-47.996c0-6.857-3.425-12.003-6.857-15.429s-8.569-5.141-13.712-5.141h-617.109c-6.857 0-11.999 1.709-15.425 5.141s-5.141 8.573-5.141 15.429v47.996c0 5.141 1.713 10.286 5.141 13.712s8.573 6.857 15.425 6.857h617.109z" />
<glyph unicode="&#xe953;" glyph-name="qr-code" horiz-adv-x="1103" d="M68.923 497.231v413.538h413.538v-413.538h-413.538zM155.077 824.615v-241.231h241.231v241.231h-241.231zM620.308 910.769h413.538v-413.538h-413.538v413.538zM947.688 583.385v241.231h-241.227v-241.231h241.227zM68.923-54.154v413.538h413.538v-413.538h-413.538zM155.077 273.231v-241.227h241.231v241.227h-241.231zM224 204.308v-103.381h103.385v103.381h-103.385zM224 755.692v-103.385h103.385v103.385h-103.385zM878.765 652.308v103.385h-103.381v-103.385h103.381zM964.923 359.385v-68.923h-137.846v68.923h-206.769v-413.538h68.923v206.769h68.923v-68.923h275.692v275.692h-68.923zM964.923 14.769v-68.923h68.923v68.923h-68.923zM827.077 14.769v-68.923h68.923v68.923h-68.923z" />
<glyph unicode="&#xe954;" glyph-name="plane" d="M889.603 897.6c20.528 11.2 42.933 13.067 65.331 7.467s39.199-16.8 52.265-35.467c13.066-18.667 18.671-41.066 14.937-63.467l-110.135-724.268c-5.598-29.867-20.535-50.401-44.803-63.468-14.93-7.462-27.996-11.196-42.933-11.196-13.066 0-24.262 1.864-35.465 5.598l-209.067 87.736-80.267-112.005c-18.667-22.398-39.2-33.594-65.333-35.465-26.133-1.864-48.534 5.598-67.2 22.398-20.533 16.8-29.866 39.206-29.866 67.202v156.802l-212.8 89.599c-22.4 7.467-39.2 22.4-48.534 44.8-9.333 20.533-11.2 41.066-3.734 63.467 5.6 22.4 18.667 39.2 41.066 52.266l776.536 448zM426.667 42.667l69.067 93.334-69.067 28.003v-121.337zM824.265 96.802l110.135 722.399-776.533-448 201.6-84 393.869 345.333c7.462 7.467 16.8 9.333 27.996 5.6 9.332-3.733 16.8-9.333 20.535-18.667s1.871-18.666-3.734-26.133l-261.332-378.935 287.464-117.596z" />
<glyph unicode="&#xe955;" glyph-name="telegram-plane" horiz-adv-x="1152" d="M1131.002 840.502c14.995 70-25.005 97.5-70.003 80l-994.998-382.5c-67.5-27.5-65-65-10-82.5l252.5-77.5 590.003 370c27.494 20 54.995 7.5 32.499-10l-477.501-430.003-17.5-262.496c27.5 0 37.5 9.997 52.5 24.998l122.5 120 257.5-190.003c47.501-27.494 82.502-12.499 95.002 42.502l167.501 797.501z" />
<glyph unicode="&#xe956;" glyph-name="share" horiz-adv-x="1092" d="M1073.070 622.922l-375.467 324.267c-32.003 27.733-83.203 4.267-83.203-40.533v-170.667c-343.467-2.133-614.4-72.533-614.4-396.8 0-130.136 83.2-260.266 177.067-328.533 27.733-21.333 70.4 6.397 59.733 40.53-96 309.336 44.8 390.403 377.6 394.669v-185.603c0-44.797 51.2-68.267 83.203-40.53l375.467 324.266c23.463 21.333 23.463 57.6 0 78.933z" />
<glyph unicode="&#xe957;" glyph-name="coinpayments" d="M174.75 541.734l32.212 107.893 226.864 114.956v-144.030l-259.076-142.943v64.123zM282.167 537.94l255.468 139.039v-114.182c0 0-3.883-37.685-22.558-44.708-13.811-4.932-232.841-118.366-232.841-118.366l-0.068 138.218zM421.25 470.498l227.1 117.148v-114.17c0 0 0-31.561-22.558-42.662-14.558-6.81-204.491-103.569-204.491-103.569l-0.051 143.253zM515.418 805.376l124.864 70.457v-143.956l-124.745-66.822-0.119 140.321zM617.050 719.59l125.478 64.869v-149.023l-125.53-63.811 0.051 147.966zM713.165 914.235l85.453 45.765v-99.279c0 0 0-49.67-22.558-59.61-4.343-2.012-62.434-31.607-62.434-31.607l-0.461 144.731zM715.503 623.521l85.129 44.708-1.958-114.078c0 0 1.958-30.085-22.558-44.707-5.653-4.395-63.625-29.103-62.601-29.594 1.020-0.491 1.651 147.709 1.988 143.671zM815.834 820.997l68.1 39.461c0 0 0.683-59.191 0-99.294-0.499-12.181-3.746-24.156-9.553-35.233-5.803-11.078-14.059-21.045-24.277-29.323 0 0-35.226-19.194-34.15-19.731 1.071-0.536-0.119 144.12-0.119 144.12zM197.869 599.445c2.878-4.002 6.179-7.758 9.858-11.221-4.163 4.023-7.659 8.536-10.385 13.413-24.517 55.347 153.23 117.577 227.29 159.155 0 0-179.772-78.132-215.407-105.389-31.497-24.082-33.762-38.641-33.762-38.641l-3.796-20.341c0.783 9.865 1.039 18.672 3.796 20.341-0.34-1.714 22.116-14.737 22.406-17.316zM184.593 217.071c-6.981 12.587-11.68 26.052-13.927 39.906 0.686-14.123 5.479-27.857 13.927-39.906zM309.843 522.065c-45.629 23.633-83.425 46.911-102.153 66.15-3.674 3.469-6.969 7.229-9.841 11.238-0.34 2.578-22.133 17.42-21.554 19.194-2.758-1.683-4.512-12.13-5.295-22.055l0.596-339.52c2.213-25.139 4.427-26.108 12.054-39.983 11.152-15.125 16.668-20.864 36.554-36.39 46.684-24.96 335.743-169.677 415.27-207.142l-305.779 537.617-19.852 10.893zM309.332 522.291c-45.629 23.636-83.425 46.914-102.153 66.153-3.511 3.482-6.635 7.25-9.33 11.252-0.34 2.562-22.218 17.406-21.554 19.18-1.362-1.149-3.899-14.44-4.682-24.351l-0.613-338.46c1.107-21.15 5.823-27.004 12.769-39.612 9.943-14.498 22.729-25.331 37.149-35.529 46.701-24.96 334.533-169.677 414.060-207.138l-305.795 537.613-19.852 10.893zM405.231 751.273c-58.164-26.64-186.902-85.603-211.122-109.411 5.939 4.387 5.603 3.916 2.655-0.22-5.005-7.019-17.537-24.596-19.68-46.886l9.858-332.903c0 0-15.834-57.613 62.007-96.772 47.811-24.060 292.658-145.771 384.793-189.414l1.229-2.163c2.095-0.973 4.023-1.882 5.798-2.718l0.026-0.009c3.665-1.732 6.677-3.153 9.178-4.173l45.107-19.729c0.017-0.192 0.038-0.294 0.055-0.303 10.487 1.638 20.262 18.85 20.262 18.85v344.243l-0.768-0.486c-1.574 17.958-11.085 48.525-55.945 73.651-3.063 2.33-28.608 13.359-66.074 29.538-121.173 52.326-367.058 158.507-380.556 198.393-12.896 38.095 94.059 88.775 163.98 121.907 33.006 15.64 57.759 27.369 57.759 32.019-0.239-0.443-11.29-5.504-28.561-13.414zM616.687 97.911c-15.565 7.62-38.43 22.921-51.853 33.621-3.191 2.47-5.939 4.83-8.060 6.989-0.828 0.828-1.498 1.566-1.984 2.197-1.182 1.446-2.005 2.773-2.389 3.955-4.271 12.646-4.838 41.097-6.016 100.591l-0.299 14.976c-0.115 5.739 8.922 8.333 14.626 5.338 1.707-0.448 3.486-1.118 5.274-2.027l63.454-34.274c2.308-1.263 4.207-3.025 5.517-5.111 1.327-2.086 2.005-4.442 1.975-6.827v-109.564c1.071-15.036-12.804-13.513-20.245-9.865z" />
<glyph unicode="&#xe958;" glyph-name="binance" d="M148.947 342.596l105.264 105.404-105.303 106.343-106.241-106.343 106.281-105.404zM692.851 524.109l-181.299 181.477-181.303-182.416-106.281 106.305 287.584 287.858 287.582-286.919-106.283-106.305zM768.892 448l105.301 106.343 107.14-106.343-106.202-106.342-106.24 106.342zM330.249 372.83l181.303-182.417 181.299 182.417 106.283-106.304-287.582-287.859-287.584 287.817 106.281 106.347zM617.792 448.939l-106.24-106.342-106.243 105.404 106.243 106.304 106.24-105.365z" />
<glyph unicode="&#xe959;" glyph-name="circle" d="M938.667 448c0-235.641-191.025-426.667-426.667-426.667s-426.667 191.025-426.667 426.667c0 235.641 191.025 426.667 426.667 426.667s426.667-191.025 426.667-426.667z" />
<glyph unicode="&#xe95a;" glyph-name="squares" d="M0 960h146.286v-146.286h-146.286v146.286zM438.857 960h146.286v-146.286h-146.286v146.286zM877.714 960h146.286v-146.286h-146.286v146.286zM0 521.143h146.286v-146.286h-146.286v146.286zM438.857 521.143h146.286v-146.286h-146.286v146.286zM877.714 521.143h146.286v-146.286h-146.286v146.286zM0 82.286h146.286v-146.286h-146.286v146.286zM438.857 82.286h146.286v-146.286h-146.286v146.286zM877.714 82.286h146.286v-146.286h-146.286v146.286z" />
<glyph unicode="&#xe95b;" glyph-name="repeat" d="M987.429 438.857c0 55.714-18.571 109.572-48.289 154.143-7.424 11.143-24.137 13-33.426 3.714l-31.568-33.428c-3.716-3.714-7.431-9.285-7.431-14.857 0-3.714 1.858-9.286 3.716-11.143 16.713-29.714 27.853-63.143 27.853-98.428 0-107.715-87.281-193.142-193.14-193.142h-416l104 100.285c9.285 9.285 9.285 22.286 0 31.571l-31.571 31.571c-9.285 9.285-22.286 9.285-31.571 0l-193.143-193.145c-9.285-9.282-9.285-22.287 0-31.568l193.143-193.141c9.285-9.289 22.286-9.289 31.571 0l31.571 31.568c9.285 9.289 9.285 22.287 0 31.568l-104 102.144h416c154.14 0 282.286 126.288 282.286 282.288zM151.714 338.572c-16.715 29.714-26 63.143-26 100.285 0 105.857 85.429 193.142 193.143 193.142h414.144l-104.001-102.143c-9.285-9.285-9.285-22.286 0-31.571l31.571-31.571c9.285-9.285 22.286-9.285 31.571 0l193.142 193.142c9.289 9.286 9.289 22.286 0 31.571l-193.142 193.143c-9.285 9.286-22.286 9.286-31.571 0l-31.571-31.571c-9.285-9.285-9.285-22.286 0-31.571l104.001-100.285h-414.144c-156.001 0-282.286-128.143-282.286-282.286 0-57.571 16.714-111.429 46.429-156 7.428-11.143 24.142-13 33.428-3.714l31.571 33.428c3.714 3.714 7.428 9.285 7.428 14.857 0 3.714-1.857 9.286-3.714 11.143z" />
<glyph unicode="&#xe95c;" glyph-name="cancelled" d="M512 881.922c77 0 150.502-21 216.998-59.5 66.502-38.5 119.002-91 157.504-157.5 38.496-66.5 59.494-140 59.494-217 0-78.75-20.998-150.501-59.494-216.997-38.502-66.502-91.002-120.755-157.504-159.251-66.496-38.502-139.999-57.754-216.998-57.754-78.75 0-150.5 19.251-217 57.754-66.5 38.496-120.749 92.749-159.25 159.251-38.5 66.496-57.75 138.247-57.75 216.997 0 77 19.25 150.5 57.75 217s92.75 119 159.251 157.5c66.5 38.5 138.25 59.5 217 59.5zM512 97.92c63 0 120.75 15.75 175.002 47.251 52.499 31.501 96.25 73.498 127.75 127.75 31.501 52.5 47.245 112 47.245 175s-15.744 120.75-47.245 175c-31.501 52.5-75.251 96.25-127.75 127.75-54.252 31.5-112.001 47.25-175.002 47.25s-122.5-15.75-175-47.25c-54.25-31.5-96.25-75.25-127.75-127.75-31.5-54.25-47.25-112-47.25-175s15.75-122.5 47.25-175c31.5-54.253 73.5-96.25 127.75-127.75 52.5-31.501 112-47.251 175-47.251zM206.5 685.594l67.882 67.882 543.058-543.058-67.882-67.882-543.058 543.058z" />
<glyph unicode="&#xe95d;" glyph-name="beaxy" d="M1024 447.987c0 282.789-229.244 512.013-512.013 512.013-282.715 0-511.987-229.252-511.987-512.013 0-282.765 229.218-511.987 512.013-511.987 282.743 0 511.987 229.252 511.987 511.987zM567.023 300.412l74.978 137.916c33.118-16.094 55.983-50.078 55.983-89.293 0-54.451-43.827-98.445-97.664-99.375l-210.811 0.081v2.308l102.442 186.581 75.072-138.219zM389.509 646.657h183.914v-0.23c40.969 0 74.236-33.277 74.236-74.215 0-12.378-2.97-23.897-8.098-34.138l-72.538-133.555-75.098 138.662-102.417-189.337v292.814zM389.509 696.143h183.914v0.214c68.702 0 124.169-55.453 124.169-124.145 0-20.483-5.129-39.689-13.662-56.76l-18.18-33.442c48.474-24.448 81.737-74.782 81.737-132.975 0-82.321-66.539-148.902-148.907-148.902v0.094l-258.543-0.094v496.222h49.473v-0.211z" />
<glyph unicode="&#xe95e;" glyph-name="oobit" d="M534.502 213.978h-204.211v-84.727h204.211v84.727zM206.507 46.148c-68.374 0-123.803 56.188-123.803 125.487 0 69.295 55.429 125.483 123.803 125.483s123.802-56.188 123.802-125.483c0-69.299-55.429-125.487-123.802-125.487zM206.507 380.958c-114.035 0-206.507-93.73-206.507-209.323 0-115.597 92.472-209.327 206.507-209.327s206.507 93.696 206.507 209.327c0 115.627-92.472 209.323-206.507 209.323zM689.728 480.687l-72.435-42.295 102.106-179.264 72.435 42.295-102.106 179.264zM924.689 234.347c34.172-60.019 13.892-136.742-45.321-171.409-59.217-34.662-134.925-14.097-169.092 45.926-34.172 60.019-13.892 136.742 45.321 171.409s134.925 14.097 169.092-45.926zM638.656 66.978c57.020-100.13 183.322-134.421 282.078-76.621 98.761 57.801 132.629 185.818 75.575 285.943-57.015 100.13-183.322 134.421-282.078 76.621-98.761-57.83-132.595-185.852-75.575-285.943zM404.817 770.716c34.172 60.022 109.914 80.554 169.092 45.923 59.217-34.665 79.492-111.387 45.325-171.409-34.172-60.023-109.879-80.589-169.097-45.923-59.246 34.63-79.525 111.387-45.321 171.409zM690.854 603.311c57.015 100.129 23.185 228.146-75.575 285.944-98.756 57.798-225.063 23.509-282.080-76.62s-23.185-228.145 75.573-285.945c98.757-57.796 225.063-23.509 282.083 76.62zM413.899 620.437l-102.107-179.264 72.437-42.295 102.107 179.263-72.437 42.296z" />
<glyph unicode="&#xe95f;" glyph-name="thorwallet" d="M544.239 466.487l379.311 493.513-591.666-264.369 212.355-229.143zM756.595 237.052l-212.356 229.436-458.906-530.487 671.262 301.052z" />
<glyph unicode="&#xe960;" glyph-name="firstbyt" d="M362.937 960v-1024h-362.937v155.546h181.468v615.695l-149.063-162.025h-32.405v278.684l136.101 136.101h226.836zM388.861 934.076v-388.861h401.821v233.317h-0.422c-6.669 101.337-90.982 181.468-194.005 181.468h-207.393v-25.924zM499.678 350.784h-110.817v-414.784h362.939v0.87c130.509 11.708 233.314 140.322 233.314 297.254 0 141.538-83.622 260.041-195.776 290.522-2.423-18.475-8.107-36.608-16.909-53.837-12.049-23.59-29.713-45.022-51.981-63.078-22.268-18.052-48.7-32.375-77.794-42.146-19.059-6.4-39.014-10.765-59.362-13.018v-1.783h-83.614z" />
<glyph unicode="&#xe961;" glyph-name="heart-half" d="M238.8 871.792c89.4 15.18 184-14.54 249.2-79.8l22.2-24 24 23.96c67 65.3 159.803 95.020 251.003 79.84 137.798-22.96 238.797-142.2 238.797-282v-11.6c0-83-34.4-162.4-95.2-219l-361.4-337.4c-15-14.003-34.801-21.798-55.4-21.798s-40.4 7.795-55.4 21.798l-361.42 337.4c-60.72 56.6-95.18 136-95.18 219v11.6c0 139.8 101.040 259.040 238.8 282.020v-0.020zM510.2 632.192v-530.803l353.198 328.003c41.203 38.4 64.602 92.4 64.602 148.8v11.6c0 92.8-67.2 172.060-158.598 187.32-60.602 10.080-122.202-9.68-165.602-51.32l-93.599-93.6z" />
<glyph unicode="&#xe962;" glyph-name="arrow-left-slider" horiz-adv-x="1097" d="M1029.994 412.442c-284.314-0.355-567.6 0.878-851.914 0.523-61.366-0.757-55.706 94.742 4.63 93.912 284.314 0.355 567.6-0.878 851.914-0.523 61.367 0.757 56.737-93.155-4.63-93.912zM433.723 139.472c-188.202 119.852-203.799 138.32-392 258.172-25.379 16.464-29.521 55.216-5.112 75.44 120.459 102.155 251.548 192.904 387.48 273.752 52.070 31.577 95.086-54.932 42.459-83.894-130.226-75.535-252.437-163.029-368.22-261.454-1.361 25.673-3.752 49.763-5.113 75.44 188.201-119.852 203.798-138.32 391.999-258.172 50.757-32.933-0.735-112.216-51.493-79.283z" />
<glyph unicode="&#xe963;" glyph-name="arrow-right-slider" horiz-adv-x="1059" d="M64.833 398.392c274.511-0.343 548.028 0.844 822.538 0.501 59.251-0.727 53.785 91.479-4.47 90.677-274.51 0.343-548.027-0.847-822.538-0.505-59.25 0.731-54.779-89.946 4.47-90.673zM640.544 134.836c181.711 115.716 196.77 133.551 378.485 249.27 24.502 15.897 28.503 53.312 4.936 72.838-116.309 98.632-242.875 186.252-374.12 264.311-50.275 30.488-91.807-53.038-40.995-81.001 125.737-72.93 243.733-157.406 355.522-252.441 1.314 24.791 3.623 48.050 4.936 72.842-181.711-115.719-196.77-133.554-378.481-249.27-49.007-31.797 0.71-108.346 49.717-76.549z" />
<glyph unicode="&#xe964;" glyph-name="clipboard" horiz-adv-x="964" d="M704 764.235h-131.765c0 58.141-47.271 105.412-105.412 105.412s-105.412-47.271-105.412-105.412h-131.765c-43.647 0-79.059-35.412-79.059-79.059v-579.765c0-43.646 35.412-79.059 79.059-79.059h474.353c43.646 0 79.059 35.412 79.059 79.059v579.765c0 43.647-35.412 79.059-79.059 79.059zM466.824 803.765c21.906 0 39.529-17.624 39.529-39.529s-17.624-39.529-39.529-39.529c-21.906 0-39.529 17.624-39.529 39.529s17.624 39.529 39.529 39.529zM271.059 523.294c0 24.95 20.226 45.176 45.176 45.176h301.176c24.949 0 45.176-20.226 45.176-45.176s-20.227-45.176-45.176-45.176h-301.176c-24.95 0-45.176 20.226-45.176 45.176zM316.235 387.765h301.176c24.949 0 45.176-20.226 45.176-45.176s-20.227-45.176-45.176-45.176h-301.176c-24.95 0-45.176 20.227-45.176 45.176s20.226 45.176 45.176 45.176z" />
<glyph unicode="&#xe965;" glyph-name="phone-1" d="M985.571 195.569l-44.573-187.568c-5.566-27.86-27.853-46.431-55.713-46.431-467.999 1.858-848.713 382.572-848.713 850.572 0 27.857 16.714 50.142 44.572 55.714l187.571 44.572c26 5.571 53.857-9.286 65-33.428l87.286-202.429c9.285-24.143 3.714-52-16.715-66.857l-100.285-81.714c63.143-128.143 167.143-232.143 297.143-295.286l81.714 100.285c14.857 18.572 42.714 26 66.857 16.715l202.43-87.286c24.144-13 39-40.857 33.426-66.859z" />
<glyph unicode="&#xe966;" glyph-name="external-link" horiz-adv-x="964" d="M813.176 869.647c24.468 0 45.176-9.412 64-26.353 16.944-18.824 26.353-39.529 26.353-64v-662.588c0-26.353-9.409-47.056-26.353-64-18.824-18.824-39.532-26.353-64-26.353h-662.588c-26.353 0-47.059 7.529-64 26.353-18.824 16.944-26.353 37.647-26.353 64v662.588c0 24.471 7.529 45.176 26.353 64 16.941 16.941 37.647 26.353 64 26.353h662.588zM801.882 116.706c1.885 0 3.765 0 7.529 3.765 1.885 1.885 3.765 3.765 3.765 7.529v640c0 1.882-1.879 3.765-3.765 7.529-3.765 1.882-5.644 3.765-7.529 3.765h-640c-3.765 0-5.647-1.882-7.529-3.765-3.765-3.765-3.765-5.647-3.765-7.529v-640c0-3.765 0-5.644 3.765-7.529 1.882-3.765 3.765-3.765 7.529-3.765h640zM700.235 688.941c5.65 0 11.294-3.765 15.059-7.529s7.529-9.412 7.529-15.059v-256c0-7.529-3.765-13.176-7.529-16.941s-9.409-5.647-15.059-5.647h-52.706c-7.529 0-13.179 1.882-16.938 5.647-3.771 3.765-5.65 9.412-5.65 16.941l3.765 109.176-304.941-304.941c-5.647-5.65-11.294-7.529-16.941-7.529-7.529 0-11.294 1.879-15.059 7.529l-43.294 43.297c-5.647 3.759-7.529 7.529-7.529 15.059 0 5.644 1.882 11.288 7.529 16.938l304.941 304.941-109.176-3.765c-7.529 0-13.176 1.882-16.941 5.647s-5.647 9.412-5.647 16.941v52.706c0 5.647 1.882 11.294 5.647 15.059s9.412 7.529 16.941 7.529h256z" />
<glyph unicode="&#xe967;" glyph-name="sack-dollar" d="M552.2 499.4c13.2-2.4 33.2-6.4 42-8.799 21.4-5.601 34.2-27.6 28.399-48.801-5.6-21.4-27.599-34.2-48.8-28.399-7.8 2-34.799 7.199-43.599 10.399-24.4 2-46-1.2-57.201-7-12.6-5.6-15.6-12.2-16.399-16.2-1.201-6.8 0-9.2 0.399-10 0.4-1 2.001-3.4 7.201-7 12.2-8.4 31.4-14.4 58-23l3.4-0.399c24.2-7.4 56.6-17 80.8-34.8 13.4-9.599 26-22.802 33.798-40.799 8-18.202 9.6-38.202 6.003-59.002-6.602-38.003-31.802-64-63.402-77.402-9.6-2.4-20-7.2-30.6-9.197v-11.002c0-22.202-18-40.198-42-40.198-20.4 0-38.401 17.997-38.401 40.198v12.8c-19 4.403-45.599 12.8-59.599 18.202-3.4 1.197-6.401 2.202-8.801 4.8-21 5.197-32.399 27.795-25.4 48.8 7 20.998 29.6 32.397 50.6 25.402 4-1.402 8.399-2.803 12.799-4.403 19-6.4 40.4-13.6 52.4-15.603 25.6-3.994 45.4-1.395 57.601 3.802 11 4.602 14.8 10.605 16 17.6 1.4 8 0.2 11.603-0.6 13.203-0.6 1.798-2.4 4.602-7.4 8.198-11.8 8.602-30.6 14.803-58.6 23.398l-4.4 1.203c-23.4 7.002-54 16.198-77.2 32-13.2 8.998-26.2 21.398-34.6 38.998-8.4 17.8-10.401 37.6-6.801 58 6.4 36.6 32.401 61.8 62.2 75.4 8.2 4.4 20.6 7.8 31.8 10.2v13.8c0 20.4 18 38.401 40.2 38.401s40.2-18.001 40.2-38.401v-14.4zM358 719.2l-114.2 165.56c-23.601 31.84 1 75.24 39.599 75.24h457.202c38.598 0 61.395-43.4 39.597-75.24l-116-165.56c18.202-10.6 37.402-23.4 58.202-39 122.803-91.201 301.6-269.8 301.6-552.2 0-105.997-86.003-192-192-192h-640c-106.040 0-192 86.003-192 192 0 282.4 178.82 461 301.6 552.2 20.8 15.6 40 28.399 56.4 39zM409.8 638.4c-108-69.2-313.8-232.4-313.8-510.4 0-52.998 42.98-96 96-96h640c52.998 0 96 43.002 96 96 0 278-205.798 441.2-313.8 510.4l-27.601 19.4h-149.2l-27.6-19.4zM570.2 753.8l79.003 112h-274.403l77.2-112h118.2z" />
<glyph unicode="&#xe969;" glyph-name="bank-build" horiz-adv-x="1138" d="M1084.444 700.444v-34.371c0-4.557-1.809-8.929-5.035-12.151-3.22-3.223-7.595-5.034-12.151-5.034h-51.553v-25.778c0-14.235-11.543-25.777-25.782-25.777h-842.072c-14.236 0-25.778 11.542-25.778 25.777v25.778h-51.556c-4.557 0-8.929 1.811-12.151 5.034s-5.034 7.594-5.034 12.151v34.371c0 3.4 1.009 6.723 2.898 9.55s4.574 5.029 7.716 6.329l498.371 189.037c4.208 1.742 8.932 1.742 13.142 0l498.369-189.037c3.14-1.3 5.825-3.502 7.72-6.329 1.889-2.827 2.896-6.15 2.896-9.55zM1032.886 47.406h-927.997c-28.473 0-51.556-23.080-51.556-51.553v-34.372c0-4.557 1.811-8.926 5.034-12.151 3.223-3.22 7.594-5.035 12.151-5.035h996.74c4.557 0 8.932 1.815 12.151 5.035 3.226 3.226 5.035 7.595 5.035 12.151v34.372c0 28.473-23.080 51.553-51.558 51.553zM225.185 558.111v-404.016h-77.333c-14.236 0-25.778-11.543-25.778-25.776v-42.962h893.632v42.962c0 14.234-11.543 25.776-25.782 25.776h-77.329v404.016h-137.483v-404.016h-137.483v404.016h-137.479v-404.016h-137.482v404.016h-137.482z" />
<glyph unicode="&#xe96a;" glyph-name="star" horiz-adv-x="1103" d="M1003.693 586.058c15.076-3.77 28.27-11.308 37.691-22.615 9.421-13.192 13.194-26.385 13.194-41.462s-5.656-28.269-16.959-39.577l-199.775-194.116 47.12-275.157c1.883-15.076-1.89-30.153-9.429-43.339-7.538-13.194-18.842-20.732-33.918-24.505-15.076-3.765-30.153-1.883-43.347 5.656l-246.886 128.158-246.885-128.158c-15.076-7.538-28.269-9.421-43.346-5.656-15.077 3.773-28.269 11.311-35.808 24.505-7.538 13.186-11.307 28.262-7.538 43.339l47.115 275.157-199.769 194.116c-11.308 11.307-18.846 24.5-18.846 39.577s3.769 28.269 13.192 41.462c9.423 11.307 22.615 18.846 39.577 22.615l275.154 39.577 122.5 248.769c7.539 15.077 16.961 24.5 32.039 30.154 15.077 3.769 28.269 3.769 43.346 0 15.077-5.654 26.385-15.077 33.924-30.154l122.5-248.769 275.155-39.577zM741.73 320.327l188.463 184.693-261.963 37.692-116.846 237.462-116.846-237.462-261.961-37.692 188.462-184.693-43.347-261.959 233.693 124.382 233.693-124.382-43.347 261.959z" />
<glyph unicode="&#xe9ae;" glyph-name="briefcase" d="M960 704h-256v64c0 35.2-28.8 64-64 64h-256c-35.204 0-64-28.8-64-64v-64h-256c-35.2 0-64-28.8-64-64v-576c0-35.202 28.796-64 64-64h896c35.2 0 64 28.798 64 64v576c0 35.2-28.8 64-64 64zM384 767.884c0.034 0.040 0.074 0.082 0.114 0.116h255.772c0.042-0.034 0.082-0.076 0.118-0.116v-63.884h-256.004v63.884zM960 448h-128v-96c0-17.602-14.4-32-32-32h-64c-17.604 0-32 14.398-32 32v96h-384v-96c0-17.602-14.4-32-32-32h-64c-17.602 0-32 14.398-32 32v96h-128v64h896v-64z" />
</font>
</defs>
</svg>
