<svg width="118" height="96" viewBox="0 0 118 96" fill="none" xmlns="http://www.w3.org/2000/svg">
<path fill-rule="evenodd" clip-rule="evenodd" d="M88 38H30V36H88V38Z" fill="black"/>
<path fill-rule="evenodd" clip-rule="evenodd" d="M72 54H30V52H72V54Z" fill="black"/>
<path fill-rule="evenodd" clip-rule="evenodd" d="M99.6363 69.1886C109.966 62.5357 116 53.584 116 44C116 34.416 109.966 25.4643 99.6363 18.8114C89.3278 12.172 74.9662 8 59 8C43.0338 8 28.6722 12.172 18.3637 18.8114C8.03413 25.4643 2 34.416 2 44C2 53.8322 8.3537 63.0024 19.1743 69.7005C21.7381 71.2875 24.1537 74.1494 23.8603 77.8027C23.4727 82.6285 21.4182 85.71 19.8839 87.6978C20.76 87.6194 21.8072 87.4691 22.9731 87.2351C26.9665 86.4339 31.8827 84.7478 35.4606 82.1714C38.2757 80.1443 42.016 78.4597 45.9457 79.0451C50.1368 79.6694 54.5068 80 59 80C74.9662 80 89.3278 75.828 99.6363 69.1886ZM118 44C118 64.9868 91.5848 82 59 82C54.409 82 49.9404 81.6623 45.651 81.0233C42.4591 80.5478 39.2481 81.9087 36.6293 83.7944C28.8462 89.3988 15.7552 90.8594 16.4991 88.9996C16.6999 88.4976 17.1628 87.915 17.738 87.191C19.23 85.3129 21.4779 82.4834 21.8667 77.6426C22.0763 75.0331 20.3476 72.7789 18.1216 71.401C6.95163 64.4867 0 54.7662 0 44C0 23.0132 26.4152 6 59 6C91.5848 6 118 23.0132 118 44Z" fill="black"/>
</svg>
